<svg width="25" height="25" viewBox="0 0 25 25" fill="none" xmlns="http://www.w3.org/2000/svg">
<mask id="mask0_18_194" style="mask-type:luminance" maskUnits="userSpaceOnUse" x="0" y="0" width="25" height="25">
<path d="M24.801 0.0180054H0.301025V24.57H24.801V0.0180054Z" fill="white"/>
</mask>
<g mask="url(#mask0_18_194)">
<path d="M19.974 2.501C19.293 2.501 18.687 2.501 18.081 2.501C14.481 2.515 10.881 2.52967 7.28103 2.545C7.07955 2.52565 6.87628 2.55121 6.68587 2.61985C6.49545 2.6885 6.32263 2.79851 6.17984 2.94197C6.03705 3.08542 5.92785 3.25876 5.8601 3.4495C5.79235 3.64023 5.76773 3.84361 5.78803 4.045C5.77403 8.30567 5.76469 12.5633 5.76003 16.818C5.76003 17.433 5.63803 17.555 5.02303 17.555H3.95603C3.42503 17.555 3.28103 17.408 3.28103 16.867C3.28103 12.867 3.26803 8.876 3.28103 4.88C3.26979 4.16086 3.33685 3.44263 3.48103 2.738C3.64173 2.01868 4.03223 1.37123 4.59349 0.893498C5.15475 0.415767 5.85628 0.133725 6.59203 0.0900009C7.18791 0.0386804 7.78603 0.0179865 8.38403 0.0280009C11.9754 0.0213342 15.567 0.0180009 19.159 0.0180009C20.1253 -0.0425776 21.0914 0.141065 21.968 0.552001C22.7862 0.969035 23.4793 1.59529 23.9769 2.36708C24.4745 3.13887 24.7588 4.02867 24.801 4.946C24.834 5.326 24.642 5.509 24.243 5.511C23.449 5.511 22.654 5.511 21.81 5.511V5.848C21.81 7.72867 21.81 9.60967 21.81 11.491C21.81 14.764 21.834 18.037 21.81 21.31C21.8137 21.9287 21.6462 22.5363 21.326 23.0658C21.0059 23.5952 20.5456 24.0258 19.996 24.31C19.6922 24.4739 19.3523 24.5594 19.007 24.559C14.2184 24.5743 9.42936 24.5743 4.64003 24.559C4.26743 24.5486 3.90172 24.4561 3.56903 24.288C2.71562 23.8906 1.97374 23.2883 1.40949 22.5347C0.845235 21.7812 0.476122 20.8998 0.335027 19.969C0.315471 19.8583 0.304106 19.7464 0.301027 19.634C0.289763 19.5642 0.29461 19.4927 0.315197 19.425C0.335785 19.3574 0.371567 19.2953 0.419811 19.2436C0.468055 19.1919 0.527483 19.1519 0.593554 19.1266C0.659625 19.1014 0.730591 19.0916 0.801027 19.098C1.26903 19.088 1.73603 19.092 2.20103 19.092L15.866 19.113C16.335 19.113 16.496 19.258 16.666 19.7C16.8231 20.1586 17.022 20.6018 17.26 21.024C17.4443 21.3154 17.6922 21.5612 17.985 21.743C18.1137 21.8418 18.2687 21.9002 18.4306 21.9111C18.5924 21.9219 18.7538 21.8846 18.8945 21.8039C19.0352 21.7232 19.1489 21.6026 19.2212 21.4575C19.2936 21.3123 19.3213 21.1489 19.301 20.988C19.317 20.118 19.325 19.2477 19.325 18.377C19.3297 13.9137 19.332 9.45033 19.332 4.987C19.2589 4.10857 19.487 3.23141 19.979 2.5" fill="#643C71"/>
<path d="M12.549 12.211H15.231C15.678 12.211 16.131 12.219 16.573 12.211C16.7731 12.1872 16.9746 12.2423 17.1348 12.3646C17.295 12.4868 17.4012 12.6667 17.431 12.866C17.4542 12.9772 17.4517 13.0922 17.4238 13.2023C17.3959 13.3125 17.3433 13.4148 17.2699 13.5015C17.1966 13.5882 17.1045 13.6572 17.0005 13.703C16.8966 13.7488 16.7835 13.7703 16.67 13.766C16.334 13.782 15.998 13.766 15.661 13.766C13.279 13.766 10.8967 13.766 8.51403 13.766C8.3847 13.7842 8.25287 13.7693 8.13091 13.7225C8.00895 13.6758 7.90089 13.5988 7.81688 13.4988C7.73288 13.3988 7.67569 13.2791 7.6507 13.1509C7.62571 13.0227 7.63374 12.8902 7.67403 12.766C7.70586 12.6034 7.79534 12.4579 7.92598 12.3561C8.05663 12.2543 8.21964 12.2031 8.38503 12.212C9.27903 12.204 10.172 12.212 11.066 12.212H12.548" fill="#643C71"/>
<path d="M12.524 10.242C11.168 10.242 9.81304 10.242 8.45704 10.242C8.3323 10.2497 8.20756 10.2269 8.09358 10.1756C7.9796 10.1244 7.87979 10.0462 7.80275 9.94777C7.7257 9.84937 7.67372 9.73373 7.6513 9.61078C7.62888 9.48783 7.63668 9.36127 7.67404 9.24201C7.72533 9.07507 7.8307 8.92993 7.97354 8.82946C8.11638 8.72898 8.28859 8.67887 8.46304 8.68701C9.16304 8.68201 9.86305 8.68701 10.563 8.68701C12.5544 8.68701 14.546 8.68701 16.538 8.68701C16.6455 8.67224 16.7548 8.67963 16.8593 8.70874C16.9638 8.73786 17.0612 8.78807 17.1456 8.85628C17.2299 8.92449 17.2993 9.00927 17.3497 9.10536C17.4 9.20146 17.43 9.30684 17.438 9.41501C17.4471 9.52752 17.4313 9.64065 17.3918 9.74639C17.3523 9.85213 17.2901 9.94789 17.2094 10.0269C17.1288 10.1059 17.0318 10.1662 16.9253 10.2036C16.8188 10.2409 16.7053 10.2544 16.593 10.243C15.237 10.243 13.882 10.243 12.526 10.243L12.524 10.242Z" fill="#643C71"/>
<path d="M12.5191 6.726H8.67707C8.54616 6.72973 8.41515 6.72405 8.28506 6.709C8.10583 6.68023 7.94257 6.58899 7.82415 6.45143C7.70573 6.31386 7.63977 6.13883 7.63798 5.95732C7.63618 5.77582 7.69866 5.59953 7.81434 5.45964C7.93002 5.31976 8.09144 5.22531 8.27006 5.193C8.37169 5.17825 8.4744 5.17223 8.57706 5.175C11.2224 5.175 13.8681 5.175 16.5141 5.175C16.6538 5.17028 16.7935 5.18715 16.9281 5.225C17.0896 5.28273 17.2272 5.39282 17.319 5.53777C17.4108 5.68272 17.4515 5.85419 17.4346 6.02491C17.4177 6.19564 17.3442 6.35581 17.2257 6.47995C17.1073 6.60409 16.9508 6.68507 16.7811 6.71C16.6695 6.72275 16.5573 6.72776 16.4451 6.725L12.5191 6.726Z" fill="#643C71"/>
<path d="M12.548 17.274C11.192 17.274 9.837 17.274 8.481 17.274C8.36406 17.2852 8.24613 17.2694 8.13626 17.2278C8.02639 17.1862 7.92752 17.12 7.84726 17.0342C7.76699 16.9485 7.70747 16.8454 7.67328 16.733C7.63908 16.6207 7.63112 16.5019 7.65001 16.386C7.67306 16.2179 7.75214 16.0625 7.87445 15.9449C7.99675 15.8273 8.15513 15.7544 8.324 15.738C8.39844 15.7308 8.47322 15.7278 8.548 15.729C11.2147 15.729 13.879 15.729 16.541 15.729C16.738 15.7019 16.938 15.7497 17.1013 15.8631C17.2647 15.9764 17.3795 16.147 17.423 16.341C17.4486 16.4534 17.4483 16.5702 17.4223 16.6824C17.3962 16.7947 17.345 16.8996 17.2725 16.9893C17.2 17.0789 17.1081 17.1509 17.0037 17.1999C16.8994 17.2488 16.7853 17.2735 16.67 17.272C16.091 17.286 15.511 17.272 14.931 17.272H12.547L12.548 17.274Z" fill="#643C71"/>
</g>
</svg>
