<svg width="22" height="21" viewBox="0 0 22 21" fill="none" xmlns="http://www.w3.org/2000/svg">
<mask id="mask0_18_268" style="mask-type:luminance" maskUnits="userSpaceOnUse" x="0" y="0" width="22" height="21">
<path d="M21.991 0.647034H0.90802V20.709H21.991V0.647034Z" fill="white"/>
</mask>
<g mask="url(#mask0_18_268)">
<path d="M20.965 11.105C20.2756 10.4399 19.4347 9.9523 18.5149 9.68436C17.595 9.41643 16.6239 9.37617 15.685 9.56705C15.4749 8.67561 15.0176 7.86151 14.3657 7.21824C13.7138 6.57497 12.8936 6.12861 11.9995 5.93044C11.1053 5.73226 10.1734 5.7903 9.31069 6.09788C8.44802 6.40547 7.6896 6.95013 7.12251 7.66932C6.55543 8.3885 6.20269 9.25305 6.1048 10.1637C6.00691 11.0743 6.16784 11.9941 6.5691 12.8173C6.97037 13.6406 7.5957 14.334 8.37329 14.8179C9.15088 15.3019 10.0492 15.5566 10.965 15.553C11.065 16.04 11.134 16.528 11.265 17.001C11.5011 17.8354 11.9264 18.604 12.508 19.247C12.5771 19.3438 12.6167 19.4584 12.622 19.577C12.624 19.7026 12.6126 19.8279 12.588 19.951C12.5688 20.1524 12.477 20.3398 12.3299 20.4785C12.1827 20.6172 11.9901 20.6977 11.788 20.705C11.2234 20.717 10.6587 20.717 10.094 20.705C9.88765 20.6999 9.69058 20.618 9.54121 20.4755C9.39184 20.333 9.30088 20.14 9.28604 19.934C9.22304 19.294 9.16104 18.654 9.11004 18.013C9.11118 17.9561 9.09259 17.9005 9.05742 17.8556C9.02224 17.8108 8.97265 17.7795 8.91704 17.767C8.39304 17.563 7.87337 17.3474 7.35804 17.12C7.3098 17.0895 7.25261 17.0764 7.19589 17.0827C7.13917 17.0891 7.08632 17.1146 7.04604 17.155C6.57404 17.555 6.09837 17.952 5.61904 18.346C5.53517 18.43 5.43459 18.4954 5.32383 18.538C5.21306 18.5806 5.09459 18.5994 4.97607 18.5933C4.85756 18.5872 4.74166 18.5562 4.63588 18.5024C4.5301 18.4486 4.4368 18.3732 4.36204 18.281C4.02871 17.9477 3.69537 17.6144 3.36204 17.281C3.26624 17.2072 3.18721 17.1138 3.13017 17.0071C3.07314 16.9004 3.03939 16.7828 3.03117 16.6621C3.02295 16.5414 3.04043 16.4204 3.08247 16.3069C3.12451 16.1935 3.19015 16.0902 3.27504 16.004C3.64204 15.535 4.02904 15.08 4.41804 14.629C4.47638 14.5752 4.51366 14.5024 4.52319 14.4236C4.53272 14.3448 4.51388 14.2652 4.47004 14.199C4.24604 13.726 4.05104 13.239 3.87004 12.75C3.81004 12.592 3.75304 12.512 3.57004 12.499C2.95204 12.455 2.33604 12.389 1.72004 12.329C1.49826 12.3176 1.28992 12.2193 1.14017 12.0553C0.990418 11.8913 0.911326 11.6749 0.920039 11.453C0.912039 10.9357 0.908039 10.418 0.908039 9.90005C0.898266 9.67788 0.976994 9.46089 1.12696 9.29668C1.27693 9.13247 1.48589 9.03442 1.70804 9.02405C2.33204 8.96405 2.95604 8.89805 3.58204 8.85205C3.74704 8.84005 3.79704 8.76905 3.85204 8.62705C4.05204 8.11705 4.26004 7.61105 4.48604 7.11405C4.52079 7.05949 4.5355 6.99455 4.52766 6.93034C4.51981 6.86613 4.4899 6.80664 4.44304 6.76205C4.05004 6.30405 3.66504 5.83805 3.28004 5.37305C3.19107 5.28836 3.12149 5.18542 3.07608 5.07129C3.03067 4.95716 3.0105 4.83456 3.01696 4.7119C3.02342 4.58924 3.05636 4.46943 3.11351 4.36071C3.17066 4.25199 3.25067 4.15692 3.34804 4.08205C3.67471 3.75471 4.00271 3.42805 4.33204 3.10205C4.40609 3.00629 4.49961 2.92733 4.60643 2.87038C4.71324 2.81342 4.83092 2.77977 4.9517 2.77165C5.07248 2.76352 5.1936 2.7811 5.30709 2.82323C5.42057 2.86536 5.52382 2.93108 5.61004 3.01605C6.07404 3.37705 6.52304 3.75805 6.96504 4.14605C7.02367 4.21036 7.10373 4.25112 7.19023 4.26069C7.27674 4.27026 7.36376 4.24799 7.43504 4.19805C7.90704 3.97305 8.39704 3.78505 8.88704 3.59805C9.03004 3.54405 9.09804 3.48905 9.11004 3.32505C9.15704 2.69205 9.22004 2.06005 9.28304 1.42505C9.29815 1.21047 9.39528 1.00995 9.5543 0.865091C9.71331 0.720229 9.92199 0.642148 10.137 0.647048C10.6704 0.641048 11.2037 0.641048 11.737 0.647048C11.9556 0.642651 12.1672 0.723843 12.3268 0.873303C12.4863 1.02276 12.5812 1.22865 12.591 1.44705C12.653 2.07905 12.714 2.71105 12.765 3.34705C12.776 3.48905 12.832 3.53705 12.965 3.58705C13.4897 3.79038 14.009 4.00705 14.523 4.23705C14.5716 4.26718 14.629 4.27984 14.6857 4.27293C14.7425 4.26602 14.7951 4.23996 14.835 4.19905C15.3077 3.79905 15.7837 3.40238 16.263 3.00905C16.345 2.92607 16.4434 2.86112 16.5518 2.81833C16.6603 2.77555 16.7766 2.75589 16.8931 2.76059C17.0096 2.7653 17.1239 2.79427 17.2286 2.84567C17.3332 2.89706 17.426 2.96973 17.501 3.05905C17.837 3.38805 18.169 3.72205 18.501 4.05905C18.6012 4.13406 18.6839 4.22986 18.7435 4.33985C18.803 4.44984 18.8381 4.57143 18.8463 4.69626C18.8545 4.8211 18.8355 4.94622 18.7908 5.06305C18.746 5.17987 18.6765 5.28562 18.587 5.37305C18.224 5.83505 17.844 6.28505 17.458 6.72905C17.4004 6.78352 17.3642 6.85674 17.3557 6.93556C17.3473 7.01439 17.3673 7.09363 17.412 7.15905C17.639 7.64805 17.837 8.15005 18.03 8.65905C18.079 8.78705 18.13 8.84505 18.271 8.85905C18.904 8.91005 19.536 8.97405 20.171 9.03505C20.3893 9.04617 20.5948 9.14165 20.7441 9.30135C20.8933 9.46105 20.9747 9.67249 20.971 9.89105C20.977 10.28 20.971 10.67 20.971 11.115" fill="#398E3D"/>
<path d="M16.882 10.199C17.5506 10.1955 18.2133 10.3239 18.8321 10.5769C19.451 10.8299 20.0138 11.2025 20.4884 11.6734C20.963 12.1442 21.34 12.7041 21.5979 13.321C21.8557 13.9378 21.9893 14.5995 21.991 15.268C22.0005 15.9451 21.8753 16.6172 21.6228 17.2454C21.3703 17.8736 20.9954 18.4454 20.52 18.9275C20.0446 19.4096 19.4782 19.7924 18.8536 20.0537C18.2289 20.315 17.5586 20.4495 16.8816 20.4495C16.2045 20.4495 15.5342 20.315 14.9095 20.0537C14.2849 19.7924 13.7184 19.4096 13.243 18.9275C12.7676 18.4454 12.3928 17.8736 12.1403 17.2454C11.8877 16.6172 11.7626 15.9451 11.772 15.268C11.7744 14.5997 11.9085 13.9383 12.1667 13.3218C12.4248 12.7053 12.802 12.1458 13.2766 11.6752C13.7512 11.2046 14.3139 10.8322 14.9326 10.5792C15.5512 10.3263 16.2137 10.1978 16.882 10.201M15.916 15.962C15.624 15.408 15.349 14.881 15.067 14.362C15.0466 14.3151 15.0169 14.2729 14.9796 14.2377C14.9424 14.2026 14.8984 14.1754 14.8504 14.1578C14.8024 14.1401 14.7513 14.1324 14.7002 14.135C14.6491 14.1376 14.599 14.1506 14.553 14.173C14.5071 14.1956 14.4664 14.2274 14.4333 14.2664C14.4002 14.3054 14.3754 14.3508 14.3606 14.3997C14.3458 14.4487 14.3412 14.5002 14.3471 14.551C14.3531 14.6018 14.3694 14.6508 14.395 14.695C14.741 15.3617 15.0927 16.0257 15.45 16.687C15.4722 16.7405 15.5068 16.7878 15.551 16.8251C15.5953 16.8624 15.6478 16.8886 15.7042 16.9014C15.7606 16.9143 15.8193 16.9134 15.8753 16.8989C15.9313 16.8844 15.983 16.8566 16.026 16.818C17.1047 16.0234 18.18 15.2234 19.252 14.418C19.2951 14.3904 19.3319 14.3541 19.3604 14.3116C19.3889 14.2691 19.4083 14.2212 19.4175 14.1709C19.4267 14.1205 19.4255 14.0688 19.4139 14.019C19.4023 13.9692 19.3807 13.9222 19.3502 13.8811C19.3198 13.84 19.2813 13.8055 19.237 13.7799C19.1927 13.7543 19.1436 13.738 19.0928 13.7321C19.042 13.7262 18.9905 13.7307 18.9415 13.7455C18.8925 13.7603 18.8471 13.785 18.808 13.818C18.659 13.918 18.517 14.031 18.373 14.138L15.917 15.964" fill="#398E3D"/>
<path d="M11.019 14.7631C10.245 14.7791 9.48231 14.5754 8.81944 14.1754C8.15658 13.7754 7.62074 13.1957 7.27412 12.5034C6.92751 11.8111 6.78435 11.0348 6.86124 10.2644C6.93814 9.49406 7.23194 8.7613 7.70854 8.15121C8.18515 7.54111 8.82501 7.07871 9.55386 6.81765C10.2827 6.5566 11.0706 6.50761 11.8262 6.67637C12.5818 6.84513 13.274 7.22472 13.8225 7.77108C14.371 8.31744 14.7533 9.00815 14.925 9.76306C13.8687 10.1433 12.9414 10.8145 12.2503 11.6992C11.5591 12.5839 11.1323 13.6461 11.019 14.7631Z" fill="#398E3D"/>
</g>
</svg>
