<svg width="24" height="25" viewBox="0 0 24 25" fill="none" xmlns="http://www.w3.org/2000/svg">
<mask id="mask0_18_182" style="mask-type:luminance" maskUnits="userSpaceOnUse" x="0" y="0" width="24" height="25">
<path d="M23.039 0.0180054H0.93396V24.57H23.039V0.0180054Z" fill="white"/>
</mask>
<g mask="url(#mask0_18_182)">
<path d="M1.32098 17.71C8.05207 15.7061 13.875 11.4203 17.789 5.589C17.559 5.453 17.36 5.333 17.159 5.216C16.726 4.966 16.291 4.716 15.859 4.468C15.579 4.305 15.577 4.162 15.859 3.998C18.1123 2.69867 20.3663 1.40134 22.621 0.106004C22.921 -0.0669959 23.033 0.00600415 23.034 0.389004C23.034 2.66367 23.034 4.938 23.034 7.212C23.034 7.512 23.034 7.812 23.034 8.112C23.034 8.467 22.911 8.533 22.596 8.353C22.007 8.018 21.414 7.678 20.833 7.328C20.807 7.30453 20.776 7.28717 20.7425 7.27719C20.7089 7.26721 20.6735 7.26487 20.6389 7.27033C20.6043 7.27579 20.5713 7.28893 20.5424 7.30877C20.5136 7.32861 20.4895 7.35466 20.472 7.385C18.9857 9.09745 17.3054 10.6314 15.465 11.956C14.587 12.578 13.688 13.179 12.765 13.723C9.25975 15.751 5.40502 17.1031 1.40098 17.709C1.37436 17.7111 1.34761 17.7121 1.32098 17.71Z" fill="#643C71"/>
<path d="M23.029 16.311C23.029 17.9577 23.029 19.604 23.029 21.25C23.029 21.694 22.907 21.816 22.463 21.816C21.5963 21.816 20.7323 21.816 19.871 21.816C19.496 21.816 19.358 21.68 19.358 21.309C19.358 17.9797 19.3603 14.6503 19.365 11.321C19.365 10.956 19.492 10.821 19.854 10.821C20.736 10.8157 21.6183 10.8157 22.501 10.821C22.901 10.821 23.021 10.95 23.022 11.348C23.022 13.0033 23.022 14.659 23.022 16.315L23.029 16.311Z" fill="#643C71"/>
<path d="M11.996 24.569H1.54196C1.04196 24.569 0.93496 24.462 0.93396 23.96C0.93396 23.733 0.93396 23.505 0.93396 23.278C0.93996 22.868 1.06696 22.741 1.47596 22.741C4.11463 22.741 6.75329 22.741 9.39196 22.741H22.412C22.931 22.741 23.028 22.841 23.029 23.365C23.029 23.611 23.034 23.856 23.029 24.102C23.022 24.423 22.881 24.567 22.558 24.569C21.876 24.569 21.193 24.569 20.511 24.569H11.996Z" fill="#643C71"/>
<path d="M18.4279 17.768C18.4279 18.9233 18.4279 20.0787 18.4279 21.234C18.4279 21.691 18.3049 21.812 17.8429 21.812C16.9876 21.812 16.1326 21.812 15.2779 21.812C14.8879 21.812 14.7499 21.677 14.7499 21.287C14.7499 18.949 14.7529 16.611 14.7589 14.273C14.7589 13.866 14.9279 13.728 15.3319 13.732C16.1939 13.741 17.0559 13.739 17.9179 13.732C17.9834 13.7222 18.0503 13.7268 18.1138 13.7457C18.1773 13.7645 18.2358 13.7971 18.2853 13.8411C18.3349 13.885 18.3741 13.9394 18.4003 14.0002C18.4265 14.061 18.439 14.1268 18.437 14.193C18.437 15.3843 18.437 16.5757 18.437 17.767L18.4279 17.768Z" fill="#643C71"/>
<path d="M10.15 19.004C10.15 18.2707 10.15 17.5343 10.15 16.795C10.15 16.381 10.275 16.252 10.68 16.251C11.5526 16.251 12.4253 16.251 13.298 16.251C13.682 16.251 13.809 16.375 13.81 16.751C13.814 18.2697 13.816 19.788 13.816 21.306C13.816 21.676 13.678 21.806 13.299 21.806C12.4263 21.806 11.5536 21.806 10.681 21.806C10.281 21.806 10.148 21.672 10.147 21.262C10.147 20.5073 10.147 19.7527 10.147 18.998L10.15 19.004Z" fill="#643C71"/>
<path d="M7.37195 21.813C6.92595 21.813 6.47994 21.813 6.03394 21.813C5.69094 21.813 5.54995 21.674 5.54895 21.335C5.54895 20.4883 5.54895 19.642 5.54895 18.796C5.54895 18.45 5.68395 18.308 6.02195 18.306C6.92262 18.3013 7.82261 18.3013 8.72195 18.306C9.06995 18.306 9.20395 18.444 9.20595 18.784C9.20928 19.6307 9.20928 20.477 9.20595 21.323C9.20595 21.674 9.06495 21.81 8.70595 21.813C8.25995 21.813 7.81395 21.813 7.36795 21.813" fill="#643C71"/>
<path d="M2.77798 21.815C2.33198 21.815 1.88598 21.815 1.43998 21.815C1.08898 21.815 0.944984 21.67 0.939984 21.315C0.939984 21.015 0.933984 20.715 0.939984 20.415C0.933809 20.3574 0.940507 20.2992 0.959593 20.2445C0.978679 20.1898 1.00968 20.14 1.05035 20.0988C1.09101 20.0575 1.14034 20.0259 1.19475 20.006C1.24917 19.9861 1.30731 19.9786 1.36498 19.984C2.30232 19.976 3.23965 19.976 4.17698 19.984C4.46298 19.984 4.60098 20.146 4.60798 20.439C4.61498 20.748 4.61598 21.058 4.60798 21.367C4.61455 21.4268 4.60756 21.4873 4.58752 21.544C4.56749 21.6007 4.53493 21.6521 4.49226 21.6945C4.44959 21.7369 4.39792 21.7691 4.34108 21.7887C4.28425 21.8084 4.22371 21.815 4.16398 21.808C3.69998 21.815 3.23598 21.808 2.77198 21.808" fill="#643C71"/>
</g>
</svg>
