<svg width="23" height="25" viewBox="0 0 23 25" fill="none" xmlns="http://www.w3.org/2000/svg">
<mask id="mask0_18_165" style="mask-type:luminance" maskUnits="userSpaceOnUse" x="0" y="0" width="23" height="25">
<path d="M22.88 0.0180054H0.23999V24.57H22.88V0.0180054Z" fill="white"/>
</mask>
<g mask="url(#mask0_18_165)">
<path d="M18.313 12.008H14.299C14.1186 11.9966 13.938 12.0235 13.7688 12.0869C13.5996 12.1503 13.4458 12.2489 13.3174 12.376C13.189 12.5032 13.089 12.656 13.024 12.8246C12.9589 12.9932 12.9303 13.1736 12.94 13.354C12.934 14.008 12.94 14.663 12.94 15.317C12.94 18.0597 12.94 20.8027 12.94 23.546V23.825C12.8681 23.8364 12.7956 23.8441 12.723 23.848C10.1896 23.848 7.6563 23.848 5.12296 23.848C4.93419 23.8526 4.751 23.7838 4.61196 23.656C3.23596 22.452 1.85663 21.25 0.473965 20.05C0.398165 19.9898 0.337519 19.9126 0.296885 19.8248C0.25625 19.7369 0.236757 19.6408 0.239965 19.544C0.244631 14.8447 0.246298 10.1447 0.244965 5.444C0.244965 4.901 0.244965 4.358 0.244965 3.815C0.230841 3.6198 0.258703 3.42384 0.326675 3.24032C0.394647 3.05679 0.50115 2.88996 0.639015 2.75105C0.77688 2.61214 0.942905 2.50439 1.12591 2.43504C1.30892 2.36568 1.50467 2.33635 1.69996 2.349C3.40596 2.349 5.11096 2.349 6.81696 2.349C7.01696 2.349 7.07796 2.295 7.07296 2.094C7.05996 1.565 7.06396 1.036 7.07296 0.506999C7.06883 0.446066 7.07759 0.384947 7.09869 0.327635C7.11979 0.270323 7.15275 0.21811 7.19542 0.17441C7.23808 0.130709 7.28948 0.096504 7.34627 0.0740316C7.40306 0.0515593 7.46395 0.0413253 7.52496 0.0439987C7.58433 0.0452462 7.64283 0.0584415 7.69698 0.0827969C7.75113 0.107152 7.79982 0.142168 7.84014 0.185755C7.88046 0.229342 7.91159 0.280606 7.93166 0.336486C7.95173 0.392367 7.96034 0.451718 7.95696 0.510999C7.95696 0.586999 7.95696 0.663999 7.95696 0.740999C7.95696 1.576 7.95696 2.412 7.95696 3.247C7.96006 3.53891 8.05933 3.82165 8.23939 4.05143C8.41945 4.28121 8.67026 4.4452 8.95296 4.518C9.24635 4.59319 9.55672 4.56457 9.8314 4.43698C10.1061 4.30939 10.3282 4.09069 10.46 3.818C10.5468 3.62949 10.5947 3.42544 10.601 3.218C10.619 2.599 10.609 1.979 10.607 1.359C10.607 1.075 10.445 0.890999 10.207 0.897999C9.96896 0.904999 9.83296 1.079 9.83296 1.359C9.83296 1.909 9.83296 2.459 9.83296 3.009C9.84124 3.08463 9.82994 3.16113 9.80016 3.23114C9.77037 3.30115 9.72309 3.36233 9.66285 3.40882C9.60261 3.4553 9.53144 3.48552 9.45616 3.49659C9.38089 3.50765 9.30403 3.49918 9.23296 3.472C9.14516 3.44493 9.06893 3.38928 9.01638 3.3139C8.96383 3.23853 8.93799 3.14775 8.94296 3.056C8.93796 2.443 8.92196 1.83 8.94296 1.218C8.96128 0.892477 9.10418 0.586492 9.34204 0.363501C9.57989 0.140509 9.89445 0.0176217 10.2205 0.0203225C10.5465 0.0230233 10.859 0.151105 11.0931 0.378006C11.3272 0.604908 11.465 0.913218 11.478 1.239C11.493 1.531 11.493 1.824 11.478 2.116C11.469 2.305 11.537 2.348 11.716 2.348C13.4493 2.342 15.1826 2.342 16.916 2.348C17.2467 2.34124 17.5687 2.45483 17.822 2.66765C18.0752 2.88046 18.2426 3.17803 18.293 3.505C18.3072 3.60132 18.3132 3.69866 18.311 3.796C18.311 6.45533 18.311 9.11467 18.311 11.774C18.311 11.842 18.305 11.91 18.3 12.007M9.19896 10.442H3.83396C3.42896 10.442 3.21496 10.595 3.20696 10.89C3.19896 11.185 3.42596 11.363 3.83496 11.363H14.585C14.6683 11.3653 14.7517 11.3596 14.834 11.346C14.9416 11.3256 15.0383 11.2671 15.1063 11.1812C15.1743 11.0953 15.209 10.9877 15.204 10.8782C15.199 10.7687 15.1547 10.6648 15.0792 10.5854C15.0037 10.506 14.902 10.4565 14.793 10.446C14.7168 10.4401 14.6403 10.4385 14.564 10.441L9.19896 10.442ZM9.20396 9.434C10.9993 9.434 12.7943 9.434 14.589 9.434C14.7066 9.43875 14.8241 9.4225 14.936 9.386C15.0302 9.34556 15.1074 9.27346 15.1541 9.18217C15.2009 9.09087 15.2143 8.98611 15.192 8.886C15.1668 8.76884 15.0984 8.6655 15.0003 8.5967C14.9022 8.5279 14.7817 8.49871 14.663 8.515H3.74596C3.41996 8.515 3.21196 8.694 3.20696 8.968C3.20196 9.242 3.41296 9.426 3.73596 9.432C3.79896 9.432 3.86096 9.432 3.92396 9.432H9.20496M9.22396 6.591V6.589H6.07196C5.29296 6.589 4.51296 6.594 3.73396 6.589C3.63997 6.5792 3.54518 6.59731 3.46141 6.64106C3.37765 6.68481 3.30863 6.75226 3.26296 6.835C3.22432 6.9076 3.20599 6.98928 3.2099 7.07144C3.21381 7.15359 3.23981 7.23316 3.28517 7.30177C3.33054 7.37037 3.39357 7.42546 3.46763 7.46123C3.54169 7.497 3.62403 7.51212 3.70596 7.505C4.45696 7.511 5.20596 7.505 5.95996 7.505H14.56C14.6363 7.50728 14.7128 7.50528 14.789 7.499C14.9028 7.48813 15.0085 7.43475 15.0848 7.34951C15.161 7.26427 15.2024 7.15342 15.2007 7.03904C15.1989 6.92465 15.1541 6.81513 15.0752 6.73228C14.9963 6.64944 14.8891 6.59935 14.775 6.592C14.713 6.586 14.65 6.592 14.587 6.592H9.22296M6.65296 16.213H5.56696H3.85396C3.80496 16.213 3.75396 16.213 3.70796 16.213C3.64423 16.2079 3.58012 16.216 3.51968 16.2368C3.45924 16.2577 3.40377 16.2908 3.35678 16.3342C3.30978 16.3776 3.27227 16.4302 3.24662 16.4887C3.22097 16.5473 3.20773 16.6106 3.20773 16.6745C3.20773 16.7384 3.22097 16.8017 3.24662 16.8603C3.27227 16.9188 3.30978 16.9714 3.35678 17.0148C3.40377 17.0582 3.45924 17.0913 3.51968 17.1122C3.58012 17.133 3.64423 17.1411 3.70796 17.136C4.31396 17.136 4.91896 17.136 5.52496 17.136C6.84096 17.136 8.15696 17.136 9.47296 17.136C9.59042 17.1389 9.70721 17.1175 9.81596 17.073C9.90685 17.0267 9.97904 16.9505 10.0204 16.8573C10.0617 16.7641 10.0697 16.6594 10.043 16.561C10.0159 16.455 9.95209 16.3621 9.86291 16.2987C9.77373 16.2353 9.66496 16.2057 9.55596 16.215C8.58796 16.215 7.61996 16.215 6.65596 16.215M6.63596 14.291H4.16896C3.98796 14.291 3.80596 14.284 3.62596 14.297C3.51585 14.3039 3.412 14.3506 3.33375 14.4284C3.2555 14.5062 3.20818 14.6098 3.2006 14.7198C3.19302 14.8299 3.22569 14.939 3.29253 15.0268C3.35938 15.1145 3.45584 15.175 3.56396 15.197C3.65263 15.2134 3.74284 15.2201 3.83296 15.217H9.38796C9.47136 15.22 9.55486 15.2176 9.63796 15.21C9.73639 15.2022 9.82957 15.1624 9.90324 15.0967C9.97692 15.031 10.027 14.9429 10.046 14.846C10.0604 14.7758 10.0582 14.7033 10.0396 14.6341C10.0211 14.5649 9.98668 14.5009 9.93912 14.4474C9.89156 14.3938 9.83217 14.352 9.76566 14.3254C9.69915 14.2988 9.62736 14.288 9.55596 14.294C8.58196 14.294 7.60696 14.294 6.63296 14.294M6.63296 12.372H5.58996C4.94996 12.372 4.30896 12.372 3.66896 12.372C3.54912 12.3706 3.43353 12.4164 3.34712 12.4995C3.2607 12.5825 3.21037 12.6962 3.20696 12.816C3.20564 12.932 3.24783 13.0443 3.3252 13.1307C3.40257 13.2172 3.50952 13.2715 3.62496 13.283C3.70101 13.2912 3.77752 13.2942 3.85396 13.292H7.50796C8.16896 13.292 8.83096 13.292 9.49196 13.292C9.58573 13.3035 9.68086 13.2893 9.76717 13.2509C9.85348 13.2125 9.92773 13.1513 9.98196 13.074C10.0287 13.008 10.0556 12.9301 10.0597 12.8493C10.0638 12.7686 10.0448 12.6884 10.005 12.618C9.96311 12.5371 9.89845 12.4704 9.81898 12.4259C9.73952 12.3815 9.64876 12.3613 9.55796 12.368C8.5833 12.368 7.60896 12.368 6.63496 12.368M1.81996 20.045L4.63996 22.501C4.63996 21.701 4.63496 20.967 4.63996 20.23C4.63996 20.057 4.57896 20.022 4.42196 20.023C3.63496 20.03 2.84896 20.023 2.06196 20.023C2.00296 20.023 1.94296 20.031 1.81896 20.041" fill="#643C71"/>
<path d="M13.881 16.294H22.8629C22.8689 16.354 22.878 16.407 22.878 16.46C22.878 19.0207 22.878 21.5813 22.878 24.142C22.878 24.442 22.749 24.57 22.442 24.57C19.7286 24.57 17.0149 24.57 14.3009 24.57C14.0099 24.57 13.869 24.439 13.869 24.155C13.869 21.5737 13.869 18.9923 13.869 16.411C13.8713 16.3721 13.8756 16.3334 13.882 16.295M20.826 22.275C20.826 22.65 20.826 23.026 20.826 23.401C20.8194 23.4642 20.826 23.528 20.8453 23.5885C20.8646 23.649 20.8961 23.7048 20.938 23.7525C20.9799 23.8003 21.0311 23.8388 21.0886 23.8658C21.1461 23.8928 21.2085 23.9076 21.272 23.9093C21.3354 23.911 21.3986 23.8996 21.4574 23.8758C21.5163 23.852 21.5696 23.8163 21.614 23.7709C21.6584 23.7255 21.6929 23.6715 21.7155 23.6121C21.738 23.5528 21.748 23.4894 21.7449 23.426C21.7529 22.6687 21.7529 21.911 21.7449 21.153C21.7464 21.0909 21.7354 21.0292 21.7124 20.9716C21.6895 20.9139 21.6551 20.8615 21.6113 20.8175C21.5675 20.7735 21.5153 20.7388 21.4578 20.7155C21.4003 20.6922 21.3386 20.6807 21.2766 20.6819C21.2145 20.683 21.1533 20.6968 21.0967 20.7222C21.0401 20.7476 20.9892 20.7842 20.9471 20.8298C20.905 20.8754 20.8726 20.929 20.8517 20.9875C20.8309 21.046 20.8222 21.1081 20.826 21.17C20.826 21.538 20.826 21.907 20.826 22.275ZM15.5259 23.832H16.088C16.1505 23.8351 16.2131 23.8256 16.2719 23.8041C16.3308 23.7826 16.3848 23.7495 16.4306 23.7068C16.4765 23.6642 16.5133 23.6127 16.539 23.5555C16.5646 23.4984 16.5786 23.4366 16.58 23.374C16.5802 23.3112 16.5676 23.249 16.543 23.1911C16.5185 23.1333 16.4824 23.0811 16.4371 23.0376C16.3917 22.9941 16.338 22.9603 16.2792 22.9382C16.2204 22.9161 16.1577 22.9062 16.0949 22.909C15.7136 22.9017 15.332 22.9017 14.95 22.909C14.8877 22.9057 14.8254 22.915 14.7669 22.9364C14.7084 22.9578 14.6548 22.9908 14.6094 23.0335C14.564 23.0762 14.5278 23.1277 14.5028 23.1848C14.4779 23.2419 14.4648 23.3035 14.4643 23.3658C14.4638 23.4282 14.476 23.4899 14.5001 23.5474C14.5241 23.6049 14.5596 23.6569 14.6043 23.7003C14.6491 23.7437 14.7021 23.7775 14.7603 23.7998C14.8185 23.8221 14.8807 23.8324 14.9429 23.83C15.1369 23.837 15.3319 23.83 15.5259 23.83M21.3009 20.03C21.4949 20.03 21.6899 20.03 21.8839 20.03C21.9431 20.0328 22.0022 20.0239 22.0579 20.0038C22.1136 19.9837 22.1647 19.9527 22.2084 19.9128C22.2521 19.8728 22.2874 19.8246 22.3124 19.7709C22.3374 19.7173 22.3515 19.6592 22.3539 19.6C22.3609 19.5391 22.3548 19.4773 22.3362 19.4189C22.3176 19.3605 22.2868 19.3067 22.2459 19.261C22.205 19.2153 22.1549 19.1787 22.0989 19.1537C22.0429 19.1288 21.9823 19.1159 21.921 19.116C21.512 19.1 21.1019 19.1 20.6929 19.116C20.6318 19.1167 20.5715 19.1298 20.5156 19.1546C20.4598 19.1793 20.4095 19.2153 20.368 19.2601C20.3264 19.3049 20.2945 19.3577 20.274 19.4153C20.2535 19.4729 20.245 19.534 20.2489 19.595C20.2549 19.7144 20.3075 19.8266 20.3954 19.9076C20.4833 19.9886 20.5995 20.0318 20.7189 20.028C20.9129 20.034 21.1069 20.028 21.3019 20.028M18.416 23.828C18.61 23.828 18.8049 23.833 18.9989 23.828C19.0593 23.8286 19.1193 23.8173 19.1753 23.7947C19.2314 23.7721 19.2824 23.7387 19.3255 23.6964C19.3687 23.6541 19.403 23.6038 19.4267 23.5482C19.4504 23.4926 19.4628 23.4329 19.4634 23.3725C19.464 23.3121 19.4527 23.2522 19.4301 23.1961C19.4076 23.1401 19.3742 23.089 19.3319 23.0459C19.2896 23.0028 19.2392 22.9684 19.1836 22.9447C19.128 22.9211 19.0683 22.9086 19.0079 22.908C18.6126 22.8987 18.217 22.8987 17.821 22.908C17.699 22.9094 17.5825 22.9593 17.4973 23.0466C17.412 23.1339 17.365 23.2515 17.3665 23.3735C17.3679 23.4955 17.4178 23.6119 17.5051 23.6971C17.5924 23.7824 17.7099 23.8295 17.8319 23.828C18.0259 23.835 18.2209 23.828 18.4149 23.828M15.5389 17.168H14.9389C14.8197 17.1639 14.7036 17.207 14.6158 17.2878C14.5281 17.3687 14.4757 17.4808 14.4699 17.6C14.464 17.6592 14.4703 17.719 14.4885 17.7757C14.5066 17.8324 14.5362 17.8848 14.5753 17.9296C14.6145 17.9744 14.6625 18.0107 14.7162 18.0362C14.77 18.0617 14.8285 18.076 14.8879 18.078C15.3099 18.096 15.734 18.095 16.157 18.078C16.2164 18.0761 16.2749 18.062 16.3287 18.0366C16.3825 18.0112 16.4305 17.975 16.4698 17.9303C16.5091 17.8856 16.5388 17.8333 16.557 17.7766C16.5753 17.72 16.5817 17.6602 16.576 17.601C16.5692 17.4819 16.5162 17.3701 16.4282 17.2896C16.3402 17.2091 16.2242 17.1662 16.1049 17.17C15.9179 17.17 15.7299 17.17 15.5429 17.17M18.4219 17.17C18.2219 17.17 18.022 17.17 17.822 17.17C17.7063 17.1686 17.5943 17.211 17.5086 17.2887C17.4229 17.3664 17.3698 17.4737 17.36 17.589C17.3535 17.6482 17.359 17.7081 17.3763 17.765C17.3935 17.822 17.4221 17.875 17.4603 17.9206C17.4985 17.9663 17.5455 18.0038 17.5985 18.0308C17.6516 18.0579 17.7096 18.0739 17.769 18.078C18.198 18.098 18.629 18.098 19.059 18.078C19.1185 18.0746 19.1766 18.059 19.2299 18.0323C19.2832 18.0057 19.3305 17.9684 19.3688 17.9228C19.4072 17.8772 19.4359 17.8243 19.4531 17.7672C19.4703 17.7102 19.4757 17.6502 19.4689 17.591C19.4612 17.4754 19.4092 17.3672 19.3237 17.2889C19.2382 17.2107 19.1258 17.1684 19.0099 17.171C18.8159 17.165 18.6209 17.171 18.4269 17.171M21.3149 17.171C21.1209 17.171 20.9259 17.171 20.7319 17.171C20.6712 17.168 20.6105 17.1772 20.5533 17.1978C20.4961 17.2185 20.4435 17.2503 20.3987 17.2914C20.3539 17.3325 20.3177 17.3821 20.2921 17.4373C20.2666 17.4925 20.2522 17.5522 20.2499 17.613C20.247 17.6723 20.2559 17.7317 20.2761 17.7875C20.2963 17.8434 20.3274 17.8947 20.3676 17.9384C20.4078 17.9822 20.4562 18.0175 20.5102 18.0423C20.5642 18.0671 20.6226 18.081 20.6819 18.083C21.0969 18.099 21.5139 18.099 21.9299 18.083C21.9895 18.082 22.0482 18.0687 22.1025 18.0441C22.1567 18.0195 22.2053 17.984 22.2454 17.9399C22.2854 17.8958 22.3159 17.8439 22.3351 17.7875C22.3543 17.7311 22.3617 17.6714 22.3569 17.612C22.3559 17.553 22.3432 17.4947 22.3195 17.4406C22.2958 17.3865 22.2616 17.3376 22.219 17.2968C22.1763 17.256 22.126 17.224 22.0709 17.2028C22.0158 17.1815 21.957 17.1714 21.8979 17.173C21.7039 17.167 21.5099 17.173 21.3149 17.173M15.5249 21.918C15.7189 21.918 15.9139 21.918 16.1079 21.918C16.1688 21.92 16.2294 21.9099 16.2863 21.8882C16.3433 21.8665 16.3953 21.8338 16.4394 21.7918C16.4835 21.7498 16.5188 21.6995 16.5433 21.6437C16.5678 21.5879 16.5809 21.5279 16.5819 21.467C16.5838 21.4077 16.5739 21.3485 16.5527 21.2931C16.5315 21.2376 16.4995 21.1869 16.4586 21.144C16.4176 21.101 16.3686 21.0666 16.3142 21.0427C16.2599 21.0188 16.2013 21.006 16.1419 21.005C15.7329 20.991 15.3229 20.991 14.9149 21.005C14.8556 21.0054 14.7969 21.0176 14.7423 21.0411C14.6878 21.0646 14.6386 21.0989 14.5975 21.1418C14.5565 21.1847 14.5244 21.2354 14.5034 21.291C14.4823 21.3465 14.4727 21.4057 14.4749 21.465C14.4745 21.5259 14.4864 21.5863 14.5099 21.6425C14.5335 21.6988 14.5682 21.7496 14.6119 21.792C14.6556 21.8345 14.7075 21.8676 14.7644 21.8894C14.8213 21.9112 14.882 21.9213 14.9429 21.919C15.1369 21.925 15.3309 21.919 15.5259 21.919M18.4129 21.919C18.6069 21.919 18.8019 21.919 18.9959 21.919C19.1174 21.9214 19.2349 21.8754 19.3224 21.7912C19.41 21.707 19.4606 21.5915 19.463 21.47C19.4653 21.3485 19.4194 21.2311 19.3352 21.1435C19.251 21.0559 19.1354 21.0054 19.0139 21.003C18.6139 20.992 18.2229 20.993 17.8279 21.003C17.7065 21.003 17.59 21.0513 17.5041 21.1371C17.4182 21.223 17.3699 21.3395 17.3699 21.461C17.3699 21.5825 17.4182 21.699 17.5041 21.7849C17.59 21.8707 17.7065 21.919 17.8279 21.919C18.0219 21.926 18.2159 21.919 18.4109 21.919M15.5219 20.007C15.7299 20.007 15.9389 20.016 16.1459 20.007C16.2654 20.0023 16.3782 19.9506 16.4597 19.8631C16.5411 19.7756 16.5847 19.6595 16.5809 19.54C16.5794 19.4238 16.5325 19.3128 16.4503 19.2306C16.3682 19.1484 16.2572 19.1016 16.141 19.1C15.741 19.089 15.3409 19.085 14.9349 19.1C14.8738 19.0978 14.8128 19.1082 14.7558 19.1305C14.6988 19.1529 14.647 19.1867 14.6037 19.23C14.5603 19.2732 14.5263 19.3249 14.5038 19.3819C14.4814 19.4388 14.4709 19.4998 14.473 19.561C14.4724 19.6219 14.4841 19.6823 14.5075 19.7385C14.5308 19.7947 14.5653 19.8457 14.6088 19.8883C14.6523 19.9309 14.704 19.9642 14.7607 19.9863C14.8175 20.0084 14.8781 20.0189 14.9389 20.017C15.1329 20.025 15.3269 20.017 15.5219 20.017M18.4219 19.099C18.2269 19.099 18.0319 19.099 17.8369 19.099C17.7755 19.0953 17.7139 19.1042 17.6559 19.1249C17.5979 19.1457 17.5448 19.178 17.4997 19.2199C17.4545 19.2618 17.4183 19.3124 17.3932 19.3686C17.3682 19.4249 17.3548 19.4856 17.3538 19.5472C17.3529 19.6088 17.3644 19.6699 17.3878 19.7269C17.4111 19.7839 17.4457 19.8356 17.4895 19.8788C17.5334 19.9221 17.5855 19.956 17.6428 19.9785C17.7001 20.0011 17.7614 20.0118 17.8229 20.01C18.2229 20.0187 18.6196 20.0187 19.0129 20.01C19.1337 20.0091 19.2492 19.9602 19.334 19.8741C19.4188 19.788 19.4659 19.6718 19.4649 19.551C19.464 19.4302 19.4152 19.3147 19.3291 19.2299C19.243 19.1452 19.1268 19.0981 19.006 19.099C18.811 19.093 18.6169 19.099 18.4219 19.099Z" fill="#643C71"/>
<path d="M22.8789 15.346H13.8669C13.8669 15.267 13.8669 15.2 13.8669 15.133C13.8669 14.541 13.8669 13.9493 13.8669 13.358C13.8574 13.2988 13.8621 13.2382 13.8806 13.1811C13.8991 13.1241 13.931 13.0723 13.9735 13.03C14.016 12.9877 14.0679 12.9561 14.125 12.9378C14.1821 12.9196 14.2428 12.9152 14.3019 12.925C17.0166 12.925 19.7316 12.925 22.4469 12.925C22.7469 12.925 22.8759 13.054 22.8759 13.36C22.8759 14.013 22.8759 14.667 22.8759 15.348" fill="#643C71"/>
</g>
</svg>
