<svg width="29" height="29" viewBox="0 0 29 29" fill="none" xmlns="http://www.w3.org/2000/svg">
<path d="M13.3159 0.330017H14.973C15.163 0.353017 15.3529 0.377003 15.5439 0.397003C18.9264 0.757291 22.0684 2.31584 24.4019 4.79089C26.7353 7.26595 28.1063 10.4942 28.267 13.892C28.4252 16.6183 27.7458 19.3279 26.3199 21.657C25.2914 23.4378 23.8829 24.97 22.1948 26.1445C20.5066 27.3189 18.5803 28.1068 16.5529 28.452C16.0309 28.552 15.5 28.599 14.973 28.671H13.3159C13.1259 28.648 12.9359 28.624 12.7449 28.604C10.4443 28.3804 8.23705 27.5808 6.32697 26.279C4.72196 25.2197 3.35167 23.8419 2.30115 22.2311C1.25063 20.6203 0.542286 18.8109 0.219971 16.915C0.119971 16.392 0.0739531 15.86 0.00195312 15.332V13.67C0.0249531 13.479 0.0489697 13.289 0.0689697 13.098C0.292005 10.7941 1.09007 8.58317 2.38995 6.668C3.4446 5.06162 4.81848 3.68943 6.42615 2.63675C8.03381 1.58407 9.84086 0.873421 11.7349 0.549011C12.2579 0.452011 12.7889 0.402017 13.3159 0.330017ZM15.8019 16.996V16.636C15.8019 15.391 15.8099 14.145 15.8019 12.9C15.8128 12.629 15.7567 12.3595 15.6385 12.1154C15.5204 11.8713 15.344 11.66 15.1248 11.5004C14.9056 11.3407 14.6504 11.2375 14.3818 11.2C14.1133 11.1624 13.8396 11.1916 13.585 11.285C13.2486 11.4074 12.9605 11.6348 12.7633 11.9336C12.5661 12.2323 12.4703 12.5866 12.4899 12.944C12.4899 14.586 12.4899 16.228 12.4899 17.87C12.4899 18.94 12.4899 20.01 12.4899 21.08C12.4815 21.3021 12.5179 21.5237 12.5969 21.7314C12.6759 21.9392 12.796 22.129 12.9499 22.2894C13.1038 22.4498 13.2884 22.5775 13.4927 22.665C13.6971 22.7526 13.9169 22.798 14.1392 22.7988C14.3615 22.7995 14.5817 22.7555 14.7866 22.6693C14.9915 22.5832 15.177 22.4566 15.332 22.2973C15.4869 22.1379 15.6083 21.949 15.6887 21.7417C15.7691 21.5345 15.8069 21.3132 15.7999 21.091C15.8109 19.73 15.8019 18.362 15.8019 16.996ZM14.1479 6.19601C13.8202 6.19523 13.4995 6.2916 13.2264 6.47299C12.9534 6.65439 12.7403 6.91267 12.614 7.21515C12.4877 7.51763 12.4539 7.85073 12.5168 8.17242C12.5798 8.49411 12.7367 8.78994 12.9677 9.02249C13.1987 9.25504 13.4935 9.41389 13.8148 9.47897C14.136 9.54406 14.4693 9.51248 14.7726 9.38818C15.076 9.26389 15.3357 9.05246 15.5189 8.78064C15.7021 8.50882 15.8006 8.18878 15.8019 7.86099C15.7991 7.42229 15.624 7.00227 15.3145 6.69141C15.0049 6.38054 14.5856 6.20372 14.1469 6.19901L14.1479 6.19601Z" fill="#643C71"/>
</svg>
