<svg width="26" height="26" viewBox="0 0 26 26" fill="none" xmlns="http://www.w3.org/2000/svg">
<mask id="mask0_18_156" style="mask-type:luminance" maskUnits="userSpaceOnUse" x="0" y="0" width="26" height="26">
<path d="M25.871 0.646973H0.872986V25.199H25.871V0.646973Z" fill="white"/>
</mask>
<g mask="url(#mask0_18_156)">
<path d="M23.724 13.218L19.472 16.357L25.872 21.378L21.949 25.199L16.629 19.186L13.492 23.462L9.73596 9.51797L23.724 13.218Z" fill="#643C71"/>
<path d="M17.758 8.05197C15.173 3.17797 12.144 1.22697 8.59196 1.80597C6.97505 2.11034 5.49225 2.90845 4.3477 4.09042C3.20316 5.2724 2.45316 6.78011 2.20096 8.40597C1.52096 12.177 2.99496 14.526 7.77596 17.296C5.76104 17.039 3.92169 16.0182 2.63768 14.4443C1.35367 12.8703 0.723033 10.8635 0.875963 8.83797C0.92219 6.7938 1.71552 4.83736 3.10605 3.3383C4.49659 1.83924 6.38802 0.901397 8.42296 0.701972C13.042 0.235972 16.523 2.76097 17.758 8.05197Z" fill="#643C71"/>
<path d="M14.3 7.08898C11.45 4.07798 8.44299 3.74498 6.17299 6.18898C3.90299 8.63298 4.45499 11.653 7.62699 14.077C5.35799 13.734 3.88899 11.831 3.86899 9.20798C3.83882 7.87595 4.28508 6.57689 5.12745 5.5446C5.96981 4.51231 7.15298 3.81458 8.46399 3.57698C9.7008 3.31264 10.9919 3.52839 12.0755 4.18052C13.1592 4.83265 13.9544 5.87237 14.3 7.08898Z" fill="#643C71"/>
<path d="M11.807 7.72397C8.41796 6.98797 7.33796 7.95597 7.74296 10.86C6.44996 9.52497 6.27896 8.52597 7.31296 7.42197C8.61296 6.03697 9.98896 6.14497 11.807 7.72197" fill="#643C71"/>
</g>
</svg>
