<svg width="22" height="22" viewBox="0 0 22 22" fill="none" xmlns="http://www.w3.org/2000/svg">
<mask id="mask0_18_240" style="mask-type:luminance" maskUnits="userSpaceOnUse" x="0" y="0" width="22" height="22">
<path d="M21.742 0.707001H0.843018V21.598H21.742V0.707001Z" fill="white"/>
</mask>
<g mask="url(#mask0_18_240)">
<path d="M11.299 0.707007C13.3652 0.708788 15.3845 1.32328 17.1014 2.47276C18.8183 3.62223 20.1558 5.25507 20.9447 7.16474C21.7335 9.07441 21.9384 11.1751 21.5332 13.2012C21.1281 15.2273 20.1312 17.0877 18.6686 18.5472C17.2061 20.0067 15.3436 20.9997 13.3166 21.4005C11.2897 21.8014 9.1894 21.5921 7.2814 20.7992C5.3734 20.0064 3.74338 18.6654 2.59753 16.9461C1.45167 15.2267 0.841432 13.2062 0.844002 11.14C0.845446 9.76848 1.11702 8.41067 1.64321 7.1441C2.16941 5.87753 2.93992 4.727 3.91076 3.7582C4.88159 2.78941 6.03374 2.02132 7.30142 1.4978C8.5691 0.974272 9.92748 0.705561 11.299 0.707007ZM2.299 11.141C2.29624 12.9187 2.82056 14.6573 3.8057 16.137C4.79084 17.6167 6.19256 18.7712 7.83368 19.4544C9.4748 20.1377 11.2816 20.319 13.0258 19.9756C14.77 19.6322 16.3732 18.7793 17.6328 17.5249C18.8924 16.2705 19.7518 14.6708 20.1024 12.9281C20.453 11.1853 20.2791 9.37775 19.6026 7.73383C18.9261 6.08992 17.7774 4.68346 16.3017 3.69224C14.8261 2.70103 13.0897 2.16956 11.312 2.16501C10.1305 2.16146 8.95992 2.39093 7.86723 2.84031C6.77453 3.28968 5.78118 3.95013 4.94402 4.78385C4.10686 5.61757 3.44233 6.6082 2.98847 7.69904C2.5346 8.78988 2.30031 9.95951 2.299 11.141Z" fill="#D52D2F"/>
<path d="M10.069 11.15C10.069 12.432 10.069 13.715 10.069 14.997C10.0758 15.0938 10.0628 15.191 10.0309 15.2826C9.99899 15.3743 9.94877 15.4585 9.8833 15.5301C9.81783 15.6018 9.73848 15.6594 9.65007 15.6994C9.56165 15.7394 9.46602 15.7611 9.36898 15.763C9.27195 15.7669 9.17513 15.7512 9.08426 15.717C8.99338 15.6827 8.91033 15.6306 8.84 15.5636C8.76967 15.4966 8.71351 15.4162 8.67486 15.3271C8.63621 15.2381 8.61585 15.1421 8.61499 15.045C8.60499 14.871 8.61499 14.696 8.61499 14.522C8.61499 12.1393 8.61499 9.75667 8.61499 7.374C8.60118 7.26999 8.60974 7.16422 8.64009 7.06378C8.67045 6.96334 8.7219 6.87054 8.79101 6.79159C8.86012 6.71264 8.94529 6.64935 9.04083 6.60596C9.13636 6.56257 9.24007 6.54008 9.345 6.54C9.44211 6.53787 9.53862 6.55566 9.6286 6.59228C9.71857 6.6289 9.80009 6.68356 9.86811 6.7529C9.93614 6.82224 9.98924 6.90478 10.0241 6.99544C10.059 7.0861 10.075 7.18294 10.071 7.28C10.078 7.986 10.071 8.691 10.071 9.397C10.071 9.981 10.071 10.5653 10.071 11.15" fill="#D52D2F"/>
<path d="M12.512 11.15C12.512 9.86801 12.512 8.58501 12.512 7.30301C12.501 7.1171 12.562 6.93408 12.6823 6.79191C12.8026 6.64974 12.973 6.55931 13.1581 6.53938C13.3433 6.51945 13.529 6.57155 13.6768 6.68486C13.8246 6.79817 13.9232 6.96402 13.952 7.14801C13.9642 7.2227 13.9699 7.29832 13.969 7.37401C13.969 9.89334 13.969 12.4127 13.969 14.932C13.9815 15.0341 13.9727 15.1377 13.943 15.2362C13.9133 15.3347 13.8634 15.426 13.7966 15.5042C13.7297 15.5823 13.6472 15.6457 13.5545 15.6903C13.4618 15.7348 13.3608 15.7596 13.258 15.763C13.1591 15.7677 13.0603 15.7517 12.9679 15.716C12.8755 15.6804 12.7916 15.6259 12.7215 15.5559C12.6514 15.486 12.5966 15.4022 12.5607 15.31C12.5248 15.2177 12.5086 15.1189 12.513 15.02C12.507 14.201 12.513 13.381 12.513 12.561C12.513 12.0903 12.513 11.62 12.513 11.15" fill="#D52D2F"/>
</g>
</svg>
