<svg width="22" height="22" viewBox="0 0 22 22" fill="none" xmlns="http://www.w3.org/2000/svg">
<mask id="mask0_18_210" style="mask-type:luminance" maskUnits="userSpaceOnUse" x="0" y="0" width="22" height="22">
<path d="M21.742 0.0740356H0.843018V21.181H21.742V0.0740356Z" fill="white"/>
</mask>
<g mask="url(#mask0_18_210)">
<path d="M21.233 6.00204C21.173 6.79304 21.089 7.92104 20.985 9.30204L18.156 6.85804L18.863 6.31804C17.111 2.23604 12.348 0.71204 6.98905 2.58604L6.33405 1.32604C8.61904 0.0519671 11.3154 -0.26585 13.834 0.44204C16.3615 1.0982 18.5455 2.68986 19.944 4.89504C20.3254 5.31455 20.7562 5.68626 21.227 6.00204" fill="#757575"/>
<path d="M9.98504 21.179L7.25604 19.27L10.87 18.108C10.77 19.05 11.259 19.141 12.003 19.088C14.0069 18.9395 15.9009 18.1146 17.3745 16.7484C18.848 15.3823 19.8136 13.556 20.113 11.569C20.147 11.349 20.17 11.127 20.204 10.854H21.741C21.61 11.635 21.549 12.339 21.369 13.01C20.7827 15.1691 19.5129 17.0801 17.7497 18.4572C15.9865 19.8342 13.8248 20.6032 11.588 20.649C11.0352 20.7603 10.498 20.9383 9.98804 21.179" fill="#757575"/>
<path d="M3.90104 5.98305C1.17104 9.84704 2.04304 14.595 6.18704 18.225L5.40004 19.349C1.02204 16.92 -0.493961 10.479 2.14304 5.77105C2.41304 5.29005 2.93704 4.82704 2.06204 4.29104L5.58404 2.69604L4.73304 6.38604L3.90104 5.98604" fill="#757575"/>
</g>
</svg>
