<svg width="22" height="22" viewBox="0 0 22 22" fill="none" xmlns="http://www.w3.org/2000/svg">
<mask id="mask0_18_253" style="mask-type:luminance" maskUnits="userSpaceOnUse" x="0" y="0" width="22" height="22">
<path d="M21.448 0.621002H0.36499V21.684H21.448V0.621002Z" fill="white"/>
</mask>
<g mask="url(#mask0_18_253)">
<path d="M2.12397 16.209C2.21866 15.7319 2.33782 15.2599 2.48097 14.795C2.59989 14.5409 2.61781 14.2511 2.53111 13.9843C2.4444 13.7175 2.25954 13.4936 2.01397 13.358C1.65762 13.0939 1.32075 12.8045 1.00597 12.492C0.875426 12.3632 0.761235 12.2187 0.665967 12.062C0.471234 11.8024 0.365967 11.4866 0.365967 11.162C0.365967 10.8375 0.471234 10.5217 0.665967 10.262C0.921215 9.92929 1.20714 9.62127 1.51997 9.34201C1.77297 9.09901 2.05597 8.88601 2.32997 8.66501C2.44256 8.58183 2.52594 8.46515 2.56815 8.33168C2.61036 8.19821 2.60925 8.0548 2.56497 7.92201C2.42697 7.37401 2.26497 6.83001 2.16497 6.27501C2.10704 5.95181 2.09894 5.62165 2.14097 5.29601C2.17376 5.02334 2.2881 4.76693 2.46902 4.56031C2.64994 4.3537 2.88902 4.20651 3.15497 4.13801C3.47585 4.0406 3.80593 3.9766 4.13997 3.94701C4.52697 3.90501 4.91897 3.90301 5.30897 3.89201C5.45922 3.90075 5.60785 3.85707 5.72949 3.76844C5.85113 3.67981 5.93825 3.55171 5.97597 3.40601C6.07597 3.08601 6.19997 2.77201 6.31097 2.45501C6.45299 1.97748 6.68668 1.53218 6.99897 1.14401C7.17424 0.917449 7.41722 0.752713 7.69257 0.67376C7.96791 0.594807 8.26127 0.605753 8.52997 0.705008C8.88741 0.837423 9.22996 1.00702 9.55197 1.21101C9.87997 1.40501 10.187 1.63701 10.497 1.86001C10.6086 1.95417 10.7496 2.0064 10.8957 2.00768C11.0418 2.00896 11.1837 1.9592 11.297 1.86701C11.633 1.62701 11.963 1.37401 12.32 1.16701C12.6592 0.96401 13.0201 0.799652 13.396 0.677008C13.636 0.60343 13.8924 0.602125 14.1332 0.673255C14.3739 0.744384 14.5884 0.884802 14.75 1.07701C15.0915 1.4711 15.344 1.93433 15.49 2.43501C15.599 2.74501 15.718 3.05101 15.815 3.36501C15.8541 3.52633 15.95 3.66817 16.0852 3.76457C16.2203 3.86098 16.3857 3.9055 16.551 3.89001C16.926 3.89001 17.301 3.90801 17.675 3.93901C17.9417 3.95761 18.2062 4.00079 18.465 4.06801C18.8598 4.14083 19.2099 4.36659 19.4391 4.69618C19.6683 5.02577 19.7581 5.43254 19.689 5.82801C19.6249 6.28118 19.5361 6.73052 19.423 7.17401C19.368 7.42801 19.298 7.67401 19.236 7.93001C19.1954 8.05872 19.1958 8.19686 19.2372 8.32531C19.2786 8.45376 19.3589 8.56618 19.467 8.64701C19.752 8.87801 20.047 9.10101 20.311 9.35401C20.618 9.62819 20.8977 9.93162 21.146 10.26C21.3424 10.5151 21.4489 10.828 21.4489 11.15C21.4489 11.472 21.3424 11.7849 21.146 12.04C20.9023 12.3624 20.6281 12.6605 20.327 12.93C20.062 13.183 19.768 13.406 19.482 13.636C19.3699 13.7181 19.2865 13.8333 19.2434 13.9653C19.2003 14.0974 19.1998 14.2396 19.242 14.372C19.381 14.928 19.542 15.479 19.642 16.041C19.7 16.3644 19.7054 16.6949 19.658 17.02C19.6137 17.3106 19.4812 17.5805 19.2783 17.7932C19.0755 18.0059 18.8121 18.151 18.524 18.209C18.244 18.2847 17.9573 18.3329 17.668 18.353C17.28 18.387 16.889 18.396 16.499 18.407C16.3487 18.3983 16.2001 18.4419 16.0784 18.5306C15.9568 18.6192 15.8697 18.7473 15.832 18.893C15.726 19.22 15.605 19.542 15.491 19.866C15.3505 20.3276 15.1246 20.7588 14.825 21.137C14.6494 21.3737 14.4007 21.5457 14.1174 21.6266C13.834 21.7074 13.5319 21.6924 13.258 21.584C12.8501 21.415 12.4583 21.2098 12.087 20.971C11.797 20.801 11.528 20.597 11.251 20.406C11.1513 20.3273 11.028 20.2845 10.901 20.2845C10.774 20.2845 10.6507 20.3273 10.551 20.406C10.212 20.641 9.87197 20.876 9.52997 21.106C9.12614 21.4134 8.64638 21.6052 8.14197 21.661C7.94258 21.674 7.74284 21.6417 7.55771 21.5666C7.37257 21.4914 7.20685 21.3753 7.07297 21.227C6.77133 20.8997 6.54322 20.5117 6.40397 20.089C6.26497 19.709 6.11797 19.331 6.00397 18.944C5.96317 18.7758 5.86324 18.6279 5.72243 18.5273C5.58161 18.4267 5.4093 18.3801 5.23697 18.396C4.73697 18.383 4.22797 18.354 3.72597 18.301C3.49087 18.271 3.26124 18.2077 3.04397 18.113C2.38897 17.842 2.06197 17.256 2.12897 16.199M9.95597 12.099C9.45597 11.599 9.00097 11.134 8.54097 10.676C8.40226 10.5381 8.21445 10.4609 8.01885 10.4615C7.82325 10.4621 7.63588 10.5403 7.49797 10.679C7.36005 10.8177 7.28289 11.0055 7.28345 11.2011C7.28402 11.3967 7.36226 11.5841 7.50097 11.722C8.11697 12.34 8.73397 12.957 9.35197 13.573C9.42145 13.6583 9.50906 13.7271 9.60844 13.7743C9.70781 13.8215 9.81645 13.846 9.92647 13.846C10.0365 13.846 10.1451 13.8215 10.2445 13.7743C10.3439 13.7271 10.4315 13.6583 10.501 13.573C10.844 13.234 11.183 12.892 11.524 12.551C12.444 11.631 13.3646 10.7117 14.286 9.79301C14.3965 9.70333 14.4803 9.58505 14.5282 9.45104C14.5762 9.31704 14.5865 9.17245 14.558 9.03301C14.5335 8.90385 14.4727 8.78435 14.3828 8.68852C14.2928 8.5927 14.1773 8.52453 14.05 8.49201C13.9133 8.45161 13.7678 8.45134 13.631 8.49123C13.4941 8.53112 13.3716 8.60948 13.278 8.71701C12.2293 9.76834 11.18 10.8187 10.13 11.868C10.0649 11.9441 10.005 12.0247 9.95097 12.109" fill="#1876D4"/>
</g>
</svg>
