<svg width="22" height="22" viewBox="0 0 22 22" fill="none" xmlns="http://www.w3.org/2000/svg">
<mask id="mask0_18_276" style="mask-type:luminance" maskUnits="userSpaceOnUse" x="0" y="0" width="22" height="22">
<path d="M21.447 0H0.364014V21.443H21.447V0Z" fill="white"/>
</mask>
<g mask="url(#mask0_18_276)">
<path d="M11.587 5.10699C20.351 5.96899 24.308 14.816 19.15 21.443C19.38 16.036 16.072 13.416 11.61 11.588C11.597 11.811 11.579 11.974 11.579 12.136C11.579 13.418 11.569 14.7 11.579 15.982C11.6099 16.1947 11.5723 16.4116 11.4716 16.6015C11.3709 16.7914 11.2124 16.9442 11.019 17.038C10.597 17.238 10.31 16.997 10.009 16.753C6.99501 14.311 3.98001 11.871 0.964014 9.43299C0.164014 8.78699 0.164014 8.32399 0.964014 7.67399C3.96935 5.24399 6.97401 2.81499 9.97801 0.386991C10.287 0.136991 10.578 -0.137009 11.029 0.0749909C11.2281 0.176717 11.3896 0.339035 11.4905 0.538534C11.5913 0.738033 11.6262 0.964401 11.59 1.18499C11.58 2.48499 11.59 3.77699 11.59 5.10599" fill="#791EA2"/>
</g>
</svg>
