<svg width="28" height="24" viewBox="0 0 28 24" fill="none" xmlns="http://www.w3.org/2000/svg">
<path d="M23.345 0.784024C23.0204 1.15414 22.7731 1.58545 22.6176 2.05258C22.4622 2.5197 22.4018 3.0132 22.44 3.50402C22.457 9.27102 22.449 15.039 22.447 20.804C22.4758 21.3172 22.3255 21.8246 22.0219 22.2393C21.7182 22.654 21.2799 22.9505 20.782 23.078C20.5434 23.1358 20.2985 23.1634 20.053 23.16C15.5957 23.1647 11.1383 23.1647 6.68099 23.16C6.56699 23.16 6.45199 23.15 6.30799 23.143V22.743C6.30799 16.2384 6.30799 9.73369 6.30799 3.22902C6.27549 2.89744 6.31691 2.56277 6.42926 2.24911C6.54162 1.93544 6.72211 1.65059 6.95775 1.41505C7.19339 1.1795 7.47831 0.999127 7.79202 0.886902C8.10573 0.774677 8.44041 0.733394 8.77199 0.766024C13.4867 0.766024 18.2013 0.766024 22.916 0.766024C23.03 0.766024 23.144 0.775024 23.345 0.784024ZM11.788 10.993C11.7817 11.0884 11.8036 11.1834 11.8511 11.2663C11.8986 11.3492 11.9696 11.4162 12.055 11.459C12.1405 11.5017 12.2366 11.5182 12.3315 11.5065C12.4263 11.4948 12.5155 11.4553 12.588 11.393C13.1627 11.033 13.7313 10.6644 14.294 10.287C14.3546 10.2348 14.432 10.2061 14.512 10.2061C14.592 10.2061 14.6694 10.2348 14.73 10.287C15.243 10.634 15.767 10.964 16.286 11.304C16.516 11.454 16.749 11.612 17.024 11.421C17.299 11.23 17.224 10.956 17.154 10.691C16.993 10.091 16.848 9.49102 16.671 8.89802C16.6367 8.81928 16.6324 8.73077 16.6587 8.64904C16.685 8.56731 16.7402 8.49798 16.814 8.45402C17.329 8.05402 17.83 7.62702 18.343 7.22002C18.4449 7.16057 18.5237 7.06855 18.5669 6.9588C18.6101 6.84904 18.615 6.72794 18.581 6.61502C18.495 6.35202 18.273 6.29402 18.022 6.28302C17.368 6.25502 16.713 6.23002 16.061 6.17402C15.9888 6.15975 15.9208 6.12953 15.8618 6.08559C15.8028 6.04165 15.7543 5.98508 15.72 5.92002C15.464 5.32002 15.238 4.70502 15.006 4.09302C14.918 3.86002 14.798 3.66802 14.516 3.66602C14.234 3.66402 14.108 3.84102 14.016 4.08002C13.79 4.68002 13.543 5.27502 13.33 5.88002C13.308 5.9752 13.2524 6.05924 13.1734 6.11674C13.0944 6.17423 12.9973 6.20131 12.9 6.19302C12.269 6.21402 11.639 6.25602 11.008 6.28302C10.745 6.29402 10.516 6.34802 10.428 6.63402C10.346 6.90202 10.49 7.07402 10.686 7.23402C11.198 7.64202 11.7 8.06302 12.216 8.46702C12.2854 8.5067 12.3376 8.57061 12.3627 8.64648C12.3878 8.72234 12.384 8.8048 12.352 8.87802C12.218 9.31302 12.112 9.75602 11.995 10.197C11.921 10.479 11.848 10.761 11.787 10.997M14.513 16.463H19.813C20.231 16.463 20.461 16.294 20.463 15.993C20.465 15.692 20.241 15.52 19.819 15.512H9.29399C9.17726 15.5082 9.06042 15.5153 8.94499 15.533C8.83223 15.5454 8.72885 15.6016 8.65719 15.6896C8.58553 15.7775 8.55133 15.8901 8.56199 16.003C8.56129 16.1162 8.60316 16.2255 8.6793 16.3092C8.75543 16.3929 8.86027 16.445 8.97299 16.455C9.07754 16.4671 9.18292 16.4701 9.28799 16.464H14.514M14.507 19.219H19.807C20.237 19.219 20.458 19.062 20.465 18.761C20.472 18.46 20.239 18.284 19.792 18.281H9.30199C9.1852 18.2743 9.06804 18.2783 8.95199 18.293C8.83949 18.3049 8.73603 18.3601 8.66344 18.4468C8.59086 18.5336 8.55484 18.6452 8.56299 18.758C8.55722 18.8706 8.59591 18.981 8.67072 19.0654C8.74554 19.1497 8.8505 19.2013 8.96299 19.209C9.0793 19.2202 9.19623 19.2235 9.31299 19.219H14.503" fill="#398E3D"/>
<path d="M5.33498 23.128C4.45498 23.128 3.59798 23.19 2.75498 23.113C2.21634 23.0337 1.72709 22.755 1.38398 22.3323C1.04087 21.9096 0.868861 21.3735 0.901977 20.83C0.925597 20.2872 1.14791 19.772 1.52662 19.3824C1.90534 18.9928 2.41404 18.756 2.95598 18.717C3.73598 18.679 4.51998 18.71 5.33198 18.71L5.33498 23.128Z" fill="#398E3D"/>
<path d="M23.419 5.23202C23.419 4.36402 23.371 3.54302 23.431 2.73202C23.4836 2.1892 23.7385 1.68602 24.1449 1.32237C24.5514 0.958725 25.0797 0.761205 25.625 0.769022C26.1746 0.77066 26.7045 0.974158 27.114 1.34085C27.5235 1.70754 27.784 2.21188 27.846 2.75802C27.9107 3.29276 27.7745 3.83248 27.464 4.27256C27.1534 4.71265 26.6905 5.02177 26.165 5.14002C25.5044 5.21827 24.8389 5.24735 24.174 5.22702C23.929 5.23402 23.684 5.22702 23.419 5.22702" fill="#398E3D"/>
<path d="M16.791 7.25303C16.491 7.49503 16.203 7.74603 15.891 7.97503C15.7663 8.05258 15.6729 8.17149 15.627 8.31096C15.5811 8.45044 15.5857 8.6016 15.64 8.73803C15.755 9.11403 15.84 9.49803 15.968 9.96303C15.555 9.69703 15.211 9.48503 14.878 9.25803C14.7729 9.17328 14.642 9.12707 14.507 9.12707C14.372 9.12707 14.2411 9.17328 14.136 9.25803C13.801 9.48903 13.454 9.70103 13.036 9.96903C13.136 9.58603 13.197 9.26903 13.307 8.97403C13.3588 8.87593 13.3907 8.76852 13.4007 8.65803C13.4108 8.54753 13.3988 8.43615 13.3655 8.33031C13.3322 8.22447 13.2783 8.12629 13.2068 8.04145C13.1353 7.9566 13.0477 7.88678 12.949 7.83603C12.6651 7.63254 12.3927 7.41354 12.133 7.18003C12.594 7.15503 12.957 7.12003 13.32 7.12003C13.4895 7.13704 13.6593 7.0917 13.7977 6.99248C13.9362 6.89326 14.0337 6.74698 14.072 6.58103C14.182 6.22803 14.334 5.88803 14.503 5.45203C14.673 5.89503 14.824 6.25203 14.95 6.62403C14.9874 6.77234 15.0756 6.90282 15.1993 6.99274C15.323 7.08265 15.4744 7.12628 15.627 7.11603C16.01 7.11603 16.393 7.15103 16.776 7.16903L16.785 7.25303" fill="#398E3D"/>
</svg>
