<svg width="18" height="17" viewBox="0 0 18 17" fill="none" xmlns="http://www.w3.org/2000/svg">
<path d="M14.7418 2.35701C13.6198 1.24472 12.1951 0.487502 10.6455 0.179852C9.09583 -0.127799 7.48991 0.0277455 6.02812 0.627072C4.56634 1.2264 3.31343 2.24296 2.42577 3.54989C1.53811 4.85682 1.05502 6.39624 1.03677 7.97601C1.03589 9.37228 1.4051 10.7438 2.10677 11.951L0.967773 16.07L5.22377 14.963C6.40263 15.599 7.72132 15.9313 9.06077 15.93C11.1859 15.9389 13.2286 15.1089 14.7453 13.6204C16.262 12.1318 17.13 10.1049 17.1608 7.98001C17.1485 6.92885 16.9278 5.89059 16.5113 4.92537C16.0949 3.96015 15.491 3.08717 14.7348 2.35701H14.7418ZM9.06777 14.591C7.87274 14.5926 6.69896 14.275 5.66777 13.671L5.42577 13.528L2.90177 14.183L3.56777 11.744L3.40877 11.493C2.74221 10.4413 2.38973 9.22115 2.39277 7.97601C2.40799 6.66299 2.80956 5.38354 3.54737 4.29732C4.28517 3.2111 5.32653 2.36622 6.54149 1.86812C7.75645 1.37002 9.0912 1.24076 10.3792 1.49647C11.6671 1.75218 12.8513 2.38154 13.7838 3.30601C14.4142 3.91137 14.9181 4.63591 15.2662 5.43758C15.6143 6.23925 15.7998 7.10209 15.8118 7.97601C15.7852 9.7445 15.0621 11.4311 13.7994 12.6696C12.5367 13.9081 10.8364 14.5986 9.06777 14.591ZM12.7278 9.64201C12.5278 9.54201 11.5418 9.06201 11.3568 8.99701C11.1718 8.93201 11.0388 8.89701 10.9048 9.09701C10.7708 9.29701 10.3878 9.74201 10.2688 9.87801C10.1498 10.014 10.0338 10.028 9.83477 9.92801C8.68235 9.47351 7.71936 8.63962 7.10477 7.56401C6.89877 7.21301 7.31077 7.23801 7.69377 6.47901C7.71867 6.42357 7.72933 6.3628 7.72479 6.30221C7.72025 6.24161 7.70065 6.18311 7.66777 6.13201C7.61677 6.03201 7.21577 5.05401 7.04977 4.65701C6.88377 4.26001 6.72077 4.32401 6.59777 4.31701C6.47477 4.31001 6.34777 4.31001 6.21477 4.31001C6.1135 4.31269 6.01383 4.33598 5.92185 4.37844C5.82987 4.42091 5.7475 4.48166 5.67977 4.55701C5.45396 4.7693 5.27503 5.02647 5.15448 5.312C5.03393 5.59753 4.97442 5.90512 4.97977 6.21501C5.04641 6.9652 5.33033 7.67969 5.79677 8.27101C6.66088 9.55054 7.84197 10.5842 9.22477 11.271C9.95398 11.6891 10.7974 11.8643 11.6328 11.771C11.9112 11.7155 12.1751 11.6028 12.4078 11.4402C12.6405 11.2775 12.837 11.0684 12.9848 10.826C13.1156 10.5293 13.156 10.2006 13.1008 9.88101C13.0568 9.78901 12.9228 9.73901 12.7238 9.64201H12.7278Z" fill="#398E3D"/>
</svg>
