<svg width="22" height="22" viewBox="0 0 22 22" fill="none" xmlns="http://www.w3.org/2000/svg">
<mask id="mask0_18_222" style="mask-type:luminance" maskUnits="userSpaceOnUse" x="0" y="0" width="22" height="22">
<path d="M21.447 0.0739746H0.364014V21.181H21.447V0.0739746Z" fill="white"/>
</mask>
<g mask="url(#mask0_18_222)">
<path d="M10.247 21.181C9.85401 21.127 9.46001 21.081 9.06901 21.018C7.01717 20.6528 5.11917 19.6889 3.61382 18.2476C2.10847 16.8063 1.06302 14.952 0.609014 12.918C0.449626 12.1734 0.367524 11.4144 0.364014 10.653H1.58601C1.58385 12.1204 1.93218 13.567 2.60201 14.8726C3.27184 16.1782 4.24381 17.3049 5.43701 18.159C7.27863 19.5502 9.58919 20.1707 11.88 19.889C14.2508 19.6398 16.4358 18.4908 17.9847 16.6787C19.5336 14.8666 20.3285 12.5295 20.2055 10.1488C20.0826 7.76809 19.0512 5.52523 17.3239 3.88232C15.5966 2.2394 13.3049 1.32158 10.921 1.31797V0.0739746C11.388 0.110975 11.855 0.117975 12.311 0.187975C14.0352 0.408592 15.6767 1.05728 17.086 2.0749C18.4952 3.09252 19.6273 4.4467 20.379 6.01397C20.975 7.19311 21.3263 8.48058 21.412 9.79897C21.42 9.85963 21.4317 9.91974 21.447 9.97897V11.297C21.435 11.35 21.42 11.403 21.412 11.456C21.34 11.944 21.295 12.437 21.195 12.919C20.744 14.9534 19.7002 16.8086 18.1956 18.2502C16.6909 19.6918 14.7929 20.6553 12.741 21.019C12.35 21.082 11.956 21.128 11.563 21.182L10.247 21.181Z" fill="#FBC02C"/>
<path d="M6.59804 8.86496L5.51704 8.23496L6.13203 7.16496L7.18204 7.76496L8.02904 6.88696L7.43904 5.86496L8.50504 5.24596L9.13304 6.32896L10.283 6.01997V4.78397H11.515V6.01796L12.676 6.32896L13.306 5.24796L14.372 5.86396L13.772 6.91296L14.64 7.76696L15.679 7.16696L16.297 8.23296L15.214 8.86196L15.521 10.01H16.762V11.249H15.523L15.212 12.404L16.295 13.033L15.679 14.101L14.637 13.501L13.774 14.363L14.374 15.407L13.308 16.023L12.679 14.941L11.534 15.248V16.488H10.289V15.255L9.13304 14.945L8.50404 16.027L7.43804 15.409L8.03804 14.368L7.17204 13.509L6.13304 14.109L5.51704 13.043L6.60004 12.414L6.29004 11.261H5.04803V10.031H6.28904L6.60104 8.86897M10.908 14.036C11.5804 14.037 12.2381 13.8385 12.7977 13.4658C13.3574 13.0931 13.7939 12.5628 14.0522 11.9419C14.3105 11.3211 14.3789 10.6376 14.2487 9.97793C14.1186 9.31823 13.7958 8.71193 13.3211 8.23569C12.8464 7.75946 12.2411 7.43467 11.5819 7.3024C10.9226 7.17013 10.2389 7.23631 9.61723 7.49258C8.99556 7.74885 8.46384 8.1837 8.0893 8.74214C7.71476 9.30059 7.51423 9.95755 7.51304 10.63C7.51159 11.0767 7.59834 11.5194 7.7683 11.9325C7.93827 12.3457 8.18811 12.7213 8.50351 13.0377C8.81891 13.3541 9.19367 13.6052 9.60629 13.7765C10.0189 13.9478 10.4613 14.036 10.908 14.036Z" fill="#FBC02C"/>
<path d="M4.71301 3.63797L3.90701 4.44397L3.08301 3.62098L3.89501 2.81097L4.71301 3.63797Z" fill="#FBC02C"/>
<path d="M5.10004 1.81697L6.16804 1.19897L6.78704 2.26597L5.72004 2.88597L5.10004 1.81697Z" fill="#FBC02C"/>
<path d="M3.15499 5.44498L2.53799 6.51398L1.46899 5.89798L2.08499 4.82898L3.15499 5.44498Z" fill="#FBC02C"/>
<path d="M7.90004 1.80498L7.58405 0.612983L8.77304 0.294983L9.09505 1.48598L7.90004 1.80498Z" fill="#FBC02C"/>
<path d="M0.564026 8.50496L0.884026 7.31497L2.07503 7.63197L1.75703 8.82497L0.564026 8.50496Z" fill="#FBC02C"/>
<path d="M13.063 10.659C13.0588 11.086 12.9281 11.5022 12.6874 11.8549C12.4467 12.2077 12.1067 12.4811 11.7106 12.6406C11.3145 12.8001 10.8799 12.8386 10.4619 12.7511C10.0439 12.6637 9.66129 12.4542 9.36234 12.1492C9.0634 11.8443 8.86161 11.4575 8.78249 11.0379C8.70338 10.6182 8.75049 10.1845 8.91787 9.79166C9.08525 9.39879 9.36538 9.06438 9.72283 8.83072C10.0803 8.59707 10.499 8.47466 10.926 8.47899C11.2095 8.48161 11.4898 8.54009 11.7506 8.6511C12.0115 8.76211 12.248 8.92346 12.4465 9.12594C12.645 9.32841 12.8016 9.56803 12.9074 9.83109C13.0132 10.0941 13.066 10.3755 13.063 10.659ZM10.903 9.71399C10.7207 9.71419 10.5425 9.76839 10.3909 9.86976C10.2393 9.97112 10.1212 10.1151 10.0514 10.2835C9.98155 10.452 9.96318 10.6373 9.99859 10.8162C10.034 10.9951 10.1216 11.1595 10.2503 11.2886C10.379 11.4177 10.5431 11.5059 10.7219 11.5418C10.9006 11.5778 11.086 11.56 11.2547 11.4908C11.4234 11.4215 11.5677 11.3038 11.6696 11.1526C11.7714 11.0013 11.8262 10.8233 11.827 10.641C11.8281 10.5192 11.8049 10.3984 11.7589 10.2857C11.7129 10.1729 11.6449 10.0704 11.5589 9.9842C11.473 9.89794 11.3707 9.82964 11.2581 9.78325C11.1455 9.73687 11.0248 9.71333 10.903 9.71399Z" fill="#FBC02C"/>
</g>
</svg>
