<svg width="28" height="25" viewBox="0 0 28 25" fill="none" xmlns="http://www.w3.org/2000/svg">
<mask id="mask0_18_173" style="mask-type:luminance" maskUnits="userSpaceOnUse" x="0" y="0" width="28" height="25">
<path d="M27.735 0.0180054H0.606995V24.57H27.735V0.0180054Z" fill="white"/>
</mask>
<g mask="url(#mask0_18_173)">
<path d="M27.735 11.291V23.243C27.6532 23.6757 27.4032 24.0583 27.0397 24.3069C26.6762 24.5555 26.2289 24.6498 25.796 24.569H2.48499C2.36999 24.569 2.25499 24.569 2.14099 24.569C1.85232 24.5628 1.57106 24.4764 1.32874 24.3194C1.08642 24.1624 0.892597 23.941 0.768995 23.68C0.706995 23.555 0.660995 23.42 0.606995 23.296V11.296C1.34299 11.9867 2.24582 12.4743 3.22699 12.711C5.16199 13.184 7.09399 13.672 9.02699 14.154L11.579 14.792C11.579 15.122 11.579 15.438 11.579 15.754C11.5657 15.941 11.6184 16.1268 11.7281 16.2788C11.8378 16.4309 11.9973 16.5396 12.179 16.586C12.738 16.776 13.295 16.974 13.862 17.136C14.064 17.1907 14.277 17.1907 14.479 17.136C15.038 16.977 15.586 16.782 16.135 16.592C16.3314 16.5466 16.504 16.4302 16.6198 16.2652C16.7355 16.1001 16.7862 15.8981 16.762 15.698C16.762 15.398 16.762 15.098 16.762 14.798C16.846 14.772 16.911 14.748 16.979 14.731C19.323 14.146 21.663 13.548 24.011 12.983C25.3873 12.7825 26.6782 12.1946 27.733 11.288M23.124 22.564V22.57C23.698 22.57 24.271 22.57 24.845 22.57C24.9584 22.5862 25.074 22.5778 25.184 22.5454C25.2939 22.513 25.3956 22.4574 25.4821 22.3823C25.5687 22.3072 25.6381 22.2144 25.6857 22.1101C25.7332 22.0059 25.7578 21.8926 25.7578 21.778C25.7578 21.6634 25.7332 21.5502 25.6857 21.4459C25.6381 21.3417 25.5687 21.2488 25.4821 21.1738C25.3956 21.0987 25.2939 21.043 25.184 21.0106C25.074 20.9782 24.9584 20.9699 24.845 20.986C23.7063 20.986 22.5677 20.986 21.429 20.986C21.2972 20.9859 21.1665 21.0093 21.043 21.055C20.8774 21.1205 20.7398 21.2415 20.6537 21.3973C20.5676 21.5531 20.5383 21.734 20.571 21.909C20.5957 22.0858 20.6821 22.2481 20.815 22.3672C20.9479 22.4864 21.1186 22.5546 21.297 22.56C21.906 22.576 22.515 22.56 23.124 22.56" fill="#643C71"/>
<path d="M0.606995 7.90601V5.949C0.659117 5.8017 0.719548 5.65747 0.787995 5.51701C0.943299 5.23306 1.17804 5.00056 1.46346 4.84799C1.74889 4.69542 2.07262 4.62939 2.39499 4.658C10.2457 4.66467 18.096 4.66467 25.946 4.658C26.052 4.658 26.158 4.65801 26.264 4.66701C26.5121 4.67861 26.7535 4.75166 26.9665 4.8796C27.1794 5.00754 27.3572 5.18636 27.484 5.40001C27.58 5.57561 27.6635 5.75772 27.734 5.94501V7.90201C27.7149 7.93979 27.6995 7.97931 27.688 8.02001C27.5978 8.73985 27.2929 9.41585 26.8131 9.96001C26.3333 10.5042 25.7009 10.8913 24.998 11.071C23.268 11.559 21.513 11.96 19.769 12.397C18.778 12.646 17.786 12.897 16.763 13.148C16.763 13.021 16.763 12.917 16.763 12.813C16.7621 12.709 16.7406 12.6061 16.6999 12.5104C16.6592 12.4146 16.6 12.3278 16.5257 12.255C16.4514 12.1822 16.3634 12.1247 16.2668 12.086C16.1703 12.0472 16.067 12.0278 15.963 12.029C14.771 12.0223 13.579 12.0223 12.387 12.029C12.1775 12.0271 11.9758 12.1082 11.8259 12.2545C11.6761 12.4009 11.5902 12.6006 11.587 12.81C11.581 12.91 11.587 13.018 11.587 13.127C11.5535 13.1265 11.5201 13.1238 11.487 13.119C8.80899 12.452 6.12699 11.803 3.45599 11.109C2.80688 10.9559 2.21207 10.628 1.7361 10.1609C1.26013 9.69372 0.921173 9.10515 0.755995 8.45901C0.700995 8.27601 0.662995 8.08801 0.617995 7.90201" fill="#643C71"/>
<path d="M18.15 3.06001H16.564C16.564 2.73901 16.564 2.43401 16.564 2.12901C16.564 1.77201 16.403 1.61101 16.048 1.61001C14.7953 1.61001 13.5427 1.61001 12.29 1.61001C12.2215 1.59941 12.1515 1.60494 12.0856 1.62618C12.0196 1.64741 11.9595 1.68375 11.9101 1.73232C11.8606 1.78088 11.8232 1.84031 11.8008 1.90588C11.7784 1.97146 11.7716 2.04136 11.781 2.11001C11.776 2.41701 11.781 2.72501 11.781 3.05501H10.167C10.1621 2.57136 10.1898 2.08793 10.25 1.60801C10.3381 1.16221 10.5784 0.760881 10.9297 0.472668C11.281 0.184455 11.7216 0.0272734 12.176 0.0280128C13.508 0.0170128 14.84 0.0150128 16.176 0.0280128C16.6932 0.035795 17.1874 0.242944 17.5555 0.606255C17.9237 0.969566 18.1374 1.46098 18.152 1.97801C18.162 2.32901 18.152 2.67801 18.152 3.06001" fill="#643C71"/>
<path d="M15.162 13.635V15.201C14.8701 15.4027 14.5235 15.51 14.1687 15.5086C13.814 15.5072 13.4682 15.397 13.178 15.193V13.635H15.162Z" fill="#643C71"/>
</g>
</svg>
