<svg width="28" height="24" viewBox="0 0 28 24" fill="none" xmlns="http://www.w3.org/2000/svg">
<path d="M19 3.00002H10V13H19V3.00002Z" fill="#1976D0"/>
<path d="M23.15 0.784024C22.8254 1.15414 22.5781 1.58545 22.4227 2.05258C22.2673 2.5197 22.2069 3.0132 22.245 3.50402C22.262 9.27102 22.254 15.039 22.252 20.804C22.2809 21.3172 22.1306 21.8246 21.8269 22.2393C21.5232 22.654 21.085 22.9505 20.587 23.078C20.3484 23.1358 20.1035 23.1634 19.858 23.16C15.4007 23.1647 10.9434 23.1647 6.48604 23.16C6.37204 23.16 6.25704 23.15 6.11304 23.143V22.743C6.11304 16.2384 6.11304 9.73369 6.11304 3.22902C6.08055 2.89744 6.12197 2.56277 6.23432 2.24911C6.34667 1.93544 6.52716 1.65059 6.7628 1.41505C6.99844 1.1795 7.28337 0.999127 7.59707 0.886902C7.91078 0.774677 8.24547 0.733394 8.57704 0.766024C13.2917 0.766024 18.0064 0.766024 22.721 0.766024C22.835 0.766024 22.949 0.775024 23.15 0.784024ZM11.593 10.993C11.5867 11.0884 11.6087 11.1834 11.6562 11.2663C11.7037 11.3492 11.7746 11.4162 11.8601 11.459C11.9455 11.5017 12.0417 11.5182 12.1365 11.5065C12.2313 11.4948 12.3206 11.4553 12.393 11.393C12.9677 11.033 13.5364 10.6644 14.099 10.287C14.1597 10.2348 14.237 10.2061 14.317 10.2061C14.3971 10.2061 14.4744 10.2348 14.535 10.287C15.048 10.634 15.572 10.964 16.091 11.304C16.321 11.454 16.554 11.612 16.829 11.421C17.104 11.23 17.029 10.956 16.959 10.691C16.798 10.091 16.653 9.49102 16.476 8.89802C16.4418 8.81928 16.4374 8.73077 16.4638 8.64904C16.4901 8.56731 16.5453 8.49798 16.619 8.45402C17.134 8.05402 17.635 7.62702 18.148 7.22002C18.2499 7.16057 18.3288 7.06855 18.372 6.9588C18.4151 6.84904 18.4201 6.72794 18.386 6.61502C18.3 6.35202 18.078 6.29402 17.827 6.28302C17.173 6.25502 16.518 6.23002 15.866 6.17402C15.7939 6.15975 15.7258 6.12953 15.6668 6.08559C15.6078 6.04165 15.5594 5.98508 15.525 5.92002C15.269 5.32002 15.043 4.70502 14.811 4.09302C14.723 3.86002 14.603 3.66802 14.321 3.66602C14.039 3.66402 13.913 3.84102 13.821 4.08002C13.595 4.68002 13.348 5.27502 13.135 5.88002C13.113 5.9752 13.0574 6.05924 12.9784 6.11674C12.8994 6.17423 12.8024 6.20131 12.705 6.19302C12.074 6.21402 11.444 6.25602 10.813 6.28302C10.55 6.29402 10.321 6.34802 10.233 6.63402C10.151 6.90202 10.295 7.07402 10.491 7.23402C11.003 7.64202 11.505 8.06302 12.021 8.46702C12.0904 8.5067 12.1427 8.57061 12.1678 8.64648C12.1929 8.72234 12.189 8.8048 12.157 8.87802C12.023 9.31302 11.917 9.75602 11.8 10.197C11.726 10.479 11.653 10.761 11.592 10.997M14.318 16.463H19.618C20.036 16.463 20.266 16.294 20.268 15.993C20.27 15.692 20.046 15.52 19.624 15.512H9.09904C8.98231 15.5082 8.86548 15.5153 8.75004 15.533C8.63728 15.5454 8.5339 15.6016 8.46224 15.6896C8.39058 15.7775 8.35639 15.8901 8.36704 16.003C8.36635 16.1162 8.40822 16.2255 8.48435 16.3092C8.56049 16.3929 8.66532 16.445 8.77804 16.455C8.88259 16.4671 8.98798 16.4701 9.09304 16.464H14.319M14.312 19.219H19.612C20.042 19.219 20.263 19.062 20.27 18.761C20.277 18.46 20.044 18.284 19.597 18.281H9.10704C8.99025 18.2743 8.8731 18.2783 8.75704 18.293C8.64455 18.3049 8.54108 18.3601 8.46849 18.4468C8.39591 18.5336 8.35989 18.6452 8.36804 18.758C8.36227 18.8706 8.40096 18.981 8.47578 19.0654C8.55059 19.1497 8.65555 19.2013 8.76804 19.209C8.88435 19.2202 9.00128 19.2235 9.11804 19.219H14.308" fill="#1976D0"/>
<path d="M5.14003 23.128C4.26003 23.128 3.40303 23.19 2.56003 23.113C2.02139 23.0337 1.53215 22.755 1.18903 22.3323C0.845919 21.9096 0.673915 21.3735 0.707031 20.83C0.730651 20.2872 0.952962 19.772 1.33168 19.3824C1.7104 18.9928 2.2191 18.756 2.76103 18.717C3.54103 18.679 4.32503 18.71 5.13703 18.71L5.14003 23.128Z" fill="#1976D0"/>
<path d="M23.2241 5.23202C23.2241 4.36402 23.176 3.54302 23.236 2.73202C23.2887 2.1892 23.5435 1.68602 23.95 1.32237C24.3564 0.958725 24.8847 0.761205 25.43 0.769022C25.9797 0.77066 26.5096 0.974158 26.9191 1.34085C27.3285 1.70754 27.589 2.21188 27.651 2.75802C27.7157 3.29276 27.5796 3.83248 27.269 4.27256C26.9584 4.71265 26.4955 5.02177 25.97 5.14002C25.3094 5.21827 24.6439 5.24735 23.979 5.22702C23.734 5.23402 23.4891 5.22702 23.2241 5.22702" fill="#1976D0"/>
<path d="M16.596 7.25303C16.296 7.49503 16.008 7.74603 15.696 7.97503C15.5714 8.05258 15.4779 8.17149 15.432 8.31096C15.3862 8.45044 15.3908 8.6016 15.445 8.73803C15.56 9.11403 15.645 9.49803 15.773 9.96303C15.36 9.69703 15.0161 9.48503 14.6831 9.25803C14.578 9.17328 14.447 9.12707 14.312 9.12707C14.1771 9.12707 14.0461 9.17328 13.941 9.25803C13.606 9.48903 13.259 9.70103 12.841 9.96903C12.941 9.58603 13.002 9.26903 13.112 8.97403C13.1639 8.87593 13.1957 8.76852 13.2058 8.65803C13.2158 8.54753 13.2038 8.43615 13.1706 8.33031C13.1373 8.22447 13.0833 8.12629 13.0118 8.04145C12.9403 7.9566 12.8527 7.88678 12.7541 7.83603C12.4702 7.63254 12.1978 7.41354 11.938 7.18003C12.399 7.15503 12.762 7.12003 13.125 7.12003C13.2945 7.13704 13.4644 7.0917 13.6028 6.99248C13.7412 6.89326 13.8387 6.74698 13.8771 6.58103C13.9871 6.22803 14.1391 5.88803 14.3081 5.45203C14.4781 5.89503 14.6291 6.25203 14.7551 6.62403C14.7922 6.77243 14.8804 6.90304 15.0042 6.99298C15.128 7.08293 15.2794 7.12648 15.432 7.11603C15.815 7.11603 16.198 7.15103 16.581 7.16903L16.59 7.25303" fill="#1976D0"/>
<mask id="mask0_18_116" style="mask-type:luminance" maskUnits="userSpaceOnUse" x="10" y="4" width="9" height="8">
<path d="M18.013 4.31503H10.359V11.965H18.013V4.31503Z" fill="white"/>
</mask>
<g mask="url(#mask0_18_116)">
<path d="M14.1911 4.31403C14.9483 4.31563 15.6881 4.54195 16.3166 4.96432C16.9451 5.38669 17.434 5.98611 17.7216 6.68663C18.0091 7.38715 18.0822 8.15726 17.9317 8.89938C17.7812 9.6415 17.4138 10.3222 16.876 10.8554C16.3382 11.3885 15.6543 11.75 14.911 11.8941C14.1676 12.0382 13.3981 11.9584 12.7001 11.6649C12.0021 11.3713 11.4069 10.8771 10.99 10.245C10.5731 9.61289 10.3532 8.87124 10.3581 8.11403C10.3673 7.10334 10.7752 6.13717 11.4929 5.42557C12.2107 4.71398 13.1804 4.31451 14.1911 4.31403ZM14.3111 8.05203V7.72503C14.3111 7.18103 14.3111 6.63703 14.3111 6.09303C14.3188 6.01705 14.3106 5.9403 14.2871 5.86765C14.2636 5.79499 14.2253 5.728 14.1746 5.67091C14.1238 5.61383 14.0618 5.56789 13.9924 5.536C13.923 5.50411 13.8478 5.48696 13.7714 5.48564C13.6951 5.48432 13.6193 5.49886 13.5488 5.52833C13.4784 5.55781 13.4148 5.60158 13.3622 5.65688C13.3095 5.71218 13.2689 5.77781 13.2429 5.84961C13.2169 5.92141 13.2061 5.99783 13.2111 6.07403C13.1998 6.90869 13.1998 7.74203 13.2111 8.57403C13.2089 8.65229 13.2227 8.73017 13.2515 8.80297C13.2803 8.87576 13.3236 8.94193 13.3788 8.99748C13.434 9.05303 13.4999 9.09679 13.5725 9.1261C13.645 9.15542 13.7228 9.16968 13.8011 9.16803C14.6451 9.17669 15.4894 9.17669 16.3341 9.16803C16.48 9.16803 16.6199 9.11008 16.723 9.00693C16.8262 8.90379 16.8841 8.7639 16.8841 8.61803C16.8841 8.47216 16.8262 8.33226 16.723 8.22912C16.6199 8.12597 16.48 8.06803 16.3341 8.06803C15.7711 8.05403 15.2081 8.06303 14.6451 8.06003C14.5451 8.06003 14.4451 8.05203 14.3191 8.04603" fill="white"/>
</g>
</svg>
